<svg xmlns="http://www.w3.org/2000/svg" viewBox="0 0 2818 2878"><defs><style>.cls-1{fill:#fff;}</style></defs><title>Asset 2</title><g id="Layer_2" data-name="Layer 2"><g id="Layer_1-2" data-name="Layer 1"><path class="cls-1" d="M0,2878V0H2818V2878ZM1340.64,1222.15c-3.62-.26-5.93-.27-8.2-.61-31.63-4.68-63.22-9.59-94.87-14.07q-103-14.55-207-19c-89.35-3.76-178.59-1.9-267.64,7.11-64.05,6.48-127.44,16.7-189.9,32.41-78.22,19.67-153.32,47.36-223.48,87.58-100.68,57.71-180.91,135.73-235.22,238.94-41,77.83-64.88,161-74.68,248.27-7.61,67.86-4.43,135.12,12.35,201.43,27.21,107.58,83.38,196.66,173.9,261.67,115.49,82.93,244.93,116.29,386.37,101.46,73-7.65,142-29.39,207-63.56,95.85-50.4,172.55-122.16,233.73-210.91,52.75-76.51,96-158.31,133.22-243.35,77.78-177.68,127.2-363.64,161.69-554,3-16.32,5.74-32.67,8.72-49.69a89.74,89.74,0,0,1,9.35.74q143.28,27.22,286.58,54.4c7.51,1.41,10.23,4.57,11.88,11.87q26.38,116.41,53.65,232.62c7.59,32.06,16.65,63.78,25.09,95.64,2.65,10,2.72,10-6.14,16-.55.37-1.13.72-1.68,1.09-87,59.28-158.58,133.11-210.41,225.17-45.88,81.51-72.37,168.62-73.42,262.77-.6,53.62,8.11,105.52,28.7,155.16,18.64,45,46.21,83.13,86.46,111.38a66.35,66.35,0,0,0,8.46,5.28c4,2,7.78,1.37,10.74-2.24a9.88,9.88,0,0,0,.31-12,22.85,22.85,0,0,0-5.28-4.49c-33-22.06-57-51.91-74.49-87.16-27.1-54.65-37.24-113-35.66-173.48,1.66-63.66,15.86-124.75,40.53-183.35,49.46-117.46,130-209.08,234.44-280.66a43.17,43.17,0,0,1,5.62-2.69c1.09,3.38,2,6.19,2.9,9,7.94,26.13,15.63,52.33,23.82,78.37,27.29,86.8,57.66,172.45,95.83,255.16,27.45,59.47,59.35,116.3,100.24,167.78,61,76.78,137.66,130,233.07,154.74a601.83,601.83,0,0,0,236.94,13.5c52.53-7.37,103-21.81,150.15-46.25,115-59.57,179.47-153.63,191.17-283A445.91,445.91,0,0,0,2774,1872.47c-36-144.37-119.38-251-254.15-315.82-71.68-34.45-148.25-49.24-227.27-52.32-65.54-2.56-130.46,3.89-195,14.9-8.42,1.43-16.85,2.78-25,4.12-8.65-18.72-52.48-177.83-52-188.49,9.51-.87,19.09-1.76,28.67-2.61,51.24-4.55,101.69-13.42,150.91-28.54,48.43-14.87,94-35.56,134.55-66.54,59.16-45.24,94.85-103.65,100.54-178.9a236.26,236.26,0,0,0,.66-25,8.78,8.78,0,0,0-8.39-8.44c-4.22-.27-8.07,2.72-9.25,7.56-.54,2.24-.38,4.64-.66,7-1.56,12.56-2.58,25.22-4.85,37.64-11.82,64.7-46.32,114.67-99.79,152.12-33.31,23.34-69.88,40-108.35,52.71-55,18.18-111.72,27.78-169.37,32.27-6.9.53-13.8.92-21.11,1.4-1.27-4.23-2.46-7.65-3.33-11.15-11.64-47.2-23.52-94.34-34.8-141.63-30.19-126.64-59.63-253.46-90.33-380-20.11-82.85-43.6-164.77-71.62-245.38-32.29-92.89-80-176.62-147.52-248.2C1531.51,145.84,1366.51,60.48,1170.2,37.51c-56.46-6.61-112.46-3.39-167.66,10.65C908.67,72,835.3,124.32,785.19,207.56c-37.37,62.07-52.34,129.82-47.26,202.06,3.34,47.45,18.52,90.49,47.79,128.21,83.86,108.11,244,110.6,327.24,3.28,56.57-72.88,64.22-154.11,24.71-237.06-33.77-70.9-91.67-113.14-170.5-121-73.61-7.33-134.35,20.08-181.38,77.36-2.66,3.24-5.19,6.59-7.77,9.89a30,30,0,0,1,2.76-11.6Q820,165,905.52,110.26c65.38-41.88,137.58-58,214.52-53.62a225,225,0,0,1,124.87,45.71c28.87,21.72,52,48.64,71.26,79,28.08,44.34,46.54,92.71,59.9,143.23,15.5,58.58,22.35,118.42,25.43,178.74,4.25,83,1.52,166-4.3,248.8-3.45,49.17-8.17,98.28-13.14,147.33q-6.4,63.12-14.77,126c-6.67,50.52-14.21,100.92-21.49,151.36C1345.67,1191.67,1343.15,1206.4,1340.64,1222.15Zm-959,1538.37c-3.11-.31-5.09-.44-7.06-.71-13.37-1.84-18.85-6.91-21-20.06a95.26,95.26,0,0,1-1.16-14.91c-.1-30.66-.16-61.32,0-92a143.38,143.38,0,0,1,1.83-22.87c3-17.79,9.76-34,23.17-46.59,12.36-11.63,26.93-16.68,44-13.9,11.9,1.94,19.35,8.82,22.17,20.18a93.27,93.27,0,0,1,2.54,20.74c.35,20.66.22,41.32.21,62,0,27.32.23,54.66-.27,82-.32,17.39-6.75,23.66-24.07,25.66-1.28.15-2.52.51-4.68,1,.36,3,.69,5.61.94,7.64H520c-.17-2.84-.33-5.52-.49-8.14-4.34-.42-7.67-.53-10.94-1.08-13.31-2.28-19.18-8.24-21-21.58a111.43,111.43,0,0,1-1-14.94c-.08-29.66-.13-59.32,0-89a157.45,157.45,0,0,1,1.47-21.92c2.72-18.55,9.4-35.44,23.3-48.63,12.33-11.7,26.92-16.68,44-13.86,11.89,2,19.37,8.84,22.13,20.21a99.23,99.23,0,0,1,2.57,21.74c.35,22.32.2,44.65.19,67,0,24.66.1,49.33-.12,74-.15,17.69-6.68,26.94-25.31,27.74a14.08,14.08,0,0,0-3.31,1.15c.17,2.45.35,4.91.52,7.32H653.74v-8c-4.39-.52-8.36-.73-12.23-1.48-12.53-2.41-17.9-7.74-20-20.28a98.39,98.39,0,0,1-1.16-15.91c-.11-40,.17-80-.28-120a159.67,159.67,0,0,0-3.79-31.61c-3.7-17.08-15-28-31.44-33.17-30.82-9.72-72.44-3-93.35,36.22-1.48,2.77-3.12,5.45-5.55,9.69-1-4.21-1.67-6.69-2.23-9.18-4.73-21.08-18-33.64-38.75-38.48-34.77-8.13-67.24,6-85.37,36.88q-2.88,4.92-5.78,9.82l-1.88-.49V2536c-24.61,6.19-48.46,6.5-73,4.77v8.51c3,.31,5.67.47,8.26.85,13.12,1.88,20.41,8.12,23.26,21.19a95.76,95.76,0,0,1,1.76,19.81c.15,42.33.09,84.65.07,127,0,5.66.1,11.34-.28,17-1,15.13-7.75,22.31-22.64,24.51-3.53.52-7.08.84-11.23,1.33.46,3.23.8,5.68,1.09,7.72H381.61Zm1852.66.14c-23-2.78-28.41-8.63-28.53-31-.19-34.33-.08-68.66,0-103,0-17.33,3.8-33.77,12.85-48.67,10.31-17,25.14-27.49,45.26-29.09,21.94-1.74,35.52,7.38,38.77,28.23a133.6,133.6,0,0,1,1.65,19.87q.21,65.47,0,131a80.66,80.66,0,0,1-1.33,14.88c-1.73,9.17-7.61,14.55-16.71,16.33-3.53.68-7.12,1-11.3,1.62.15,2.94.26,5.39.38,7.84h102.34v-8c-4.49-.53-8.46-.74-12.33-1.51-12.46-2.45-17.77-7.8-19.82-20.43a100.68,100.68,0,0,1-1.12-15.91c-.12-41,.16-82-.35-123a116,116,0,0,0-4.41-29.49c-4.53-16.14-15.55-27.18-31.61-32.08-30.82-9.42-74.79-4.29-96.92,37.34-1.16,2.18-2.45,4.3-3.68,6.45l-2-.51V2420.39c-24.87,7.8-49.17,5.75-73.7,5.43.28,3.52.47,5.76.65,8,1.73.31,3,.63,4.34.76,16.24,1.67,26.25,7.9,28.07,29,1,11.92.87,24,.88,36q.09,113.47,0,226.95c0,22.22-5.46,32.82-30.53,33.72a13.81,13.81,0,0,0-3.25,1.15c.18,2.48.37,5,.54,7.3h101.89ZM1204.54,2548.4c8.34,1.64,15.72,2.34,22.55,4.64,9.36,3.14,12.11,10.1,7.91,19.07a51.55,51.55,0,0,1-8.87,13.18c-13,13.87-26.14,27.58-39.62,40.95-9.26,9.18-20.76,13.89-34.85,14.83V2483.75c0-10.66.2-21.33-.06-32-.25-10.1,1.15-20.29-.73-29.8-12.71,1.48-24.53,3.39-36.43,4.08s-23.84.15-36.07.15v7.67c2.91.5,5.21.87,7.5,1.28,15.51,2.81,22.08,9.23,24.37,24.69a136.46,136.46,0,0,1,1.37,19.9q.15,91.5.06,183c0,22.33.27,44.67-.15,67-.4,21.43-7.45,28.52-28.67,30.34a10,10,0,0,0-2,.18c-.91.28-1.78.72-3.17,1.3.29,2.49.57,5,.82,7.13h101.56a41.73,41.73,0,0,0,.46-5.19,7.45,7.45,0,0,0-.93-2.47,8.15,8.15,0,0,0-2.09-.77c-17.15-.72-25.43-7.74-25.78-28.38,0-1,0-2,0-3q0-35,0-70a67.28,67.28,0,0,1,.77-7.39c15.9.73,22.23,4.26,32.52,19.07,16.55,23.8,32.57,48,49.33,71.62,6.5,9.17,5,16.83-7.09,18.24-.53.06-1,.81-2,1.76.32,2,.71,4.44,1,6.49h83.67v-8.19c-11.39-2.47-19.4-9.22-26.07-17.88-1.62-2.11-3.26-4.21-4.84-6.36q-37.55-51.19-75.06-102.4c-1.54-2.1-2.83-4.37-4.68-7.25,20.36-21,40.34-41.93,60.78-62.44,7.15-7.18,16.42-11.29,26.33-13.67,2.18-.53,4.34-1.15,7.13-1.9-.46-2.88-.83-5.29-1.13-7.19h-87.81Zm150.65.9c3.2.31,5.18.45,7.15.7,14.23,1.81,21.62,8.2,24.51,22.25a90.28,90.28,0,0,1,1.42,17.86c.12,36.32,0,72.64.15,108.95a247.74,247.74,0,0,0,1.75,27.9c3,25.42,16.59,40.91,40,46.45,34.56,8.18,67.43-6,85.39-36.78,1.72-3,3.45-5.88,5.18-8.82l1.66.61v45.7c24.57-6.16,48.67-6.72,73.12-4.91a30.5,30.5,0,0,0,.66-4.55,24.71,24.71,0,0,0-.81-4c-2.26-.22-4.23-.36-6.18-.6-15.6-1.94-23.13-9-25.48-24.68a136.45,136.45,0,0,1-1.36-19.9q-.15-83.46-.06-166.93v-12.65c-24.77,6.45-48.92,6.48-73.92,5,.43,3.56.72,6,1,8.2,23.62,3.21,32.11,10.52,32.46,30.9.66,37.3.71,74.63-.17,111.93-.42,17.93-6.91,34.55-18.43,48.73-9.92,12.21-22.61,19.41-38.52,20.5-20.36,1.39-32.47-8.41-34.71-28.69a252.17,252.17,0,0,1-1.37-26.93c-.13-52.31-.06-104.62-.06-156.93v-12.78c-24.9,6.59-49,6.54-73.41,5.09Zm-1286.4,9.34c5.38-7.16,12.63-10.81,20.44-12.23A142.75,142.75,0,0,1,118,2544c20.56.52,32,11.15,34.17,31.75,1.23,11.55.7,23.28,1.34,34.91.62,11.28-4.25,19.44-13.84,24.59-8.78,4.71-18,8.7-27,12.88-16,7.4-32.45,14-47.94,22.32a88.32,88.32,0,0,0-24.23,18.89c-25.28,28.78-11.25,72.46,26,80.8,31.16,7,58-1.5,79.14-26.05,2.17-2.52,3.35-6.39,7.67-7.09.45,3.47.63,6.48,1.26,9.4,2.87,13.35,10.81,22,24.31,24.76,10.57,2.15,21.28,2.09,31.55-1.71,8.07-3,15.49-7.22,21.44-14.05l-4.38-5.52c-5.19,2.6-9.71,5.61-14.67,7.19-10.1,3.22-17.11-1.45-18.56-11.91a88.51,88.51,0,0,1-.47-12c0-39.65.08-79.3-.1-119a252.46,252.46,0,0,0-1.69-27.9c-3-26-17.55-42.59-43.12-48.65-27.87-6.6-55.1-3.83-80.76,8.82-8.15,4-15.67,10.2-22,16.8-8.82,9.19-9.92,20.78-5.37,32.64,3.82,9.94,12.16,14.79,23.85,14.35,11.22-.42,19.47-5.89,22.63-15a28,28,0,0,0-10.54-31.88C74.2,2561.74,71.64,2560.37,68.79,2558.64Zm2553.26,73c.76-21-2.3-40.1-11.16-58s-23.32-29.74-42.55-35.26A103.23,103.23,0,0,0,2516,2537c-34.17,7.9-55.8,30-67.56,62a168,168,0,0,0-5.61,99.3c9.92,40.8,38.05,71.84,87.26,76.89,41,4.22,78.73-18.37,93.2-57.08.2-.55-.05-1.27-.14-2.72L2616,2713c-5.22,7.56-9.54,14.7-14.71,21.14-20.92,26-69.84,35.16-98-2.38a117,117,0,0,1-9.51-15.21c-6.17-11.6-9.46-24.2-11-37.15-1.85-15.53-1.41-31.09.19-47.68Zm171.63,129c-4.47-.53-8.44-.75-12.31-1.52-12.48-2.46-17.85-7.79-19.84-20.39a114.89,114.89,0,0,1-1.15-17.89q-.11-143.92-.05-287.84v-12.64c-24.94,7.87-49.3,5.66-73.89,5.48.24,3.34.4,5.56.57,7.86,3.38.61,6.3,1.25,9.25,1.65,12.89,1.78,20.38,9.33,22.59,21.86a109.2,109.2,0,0,1,1.42,18.87q.14,124.42.05,248.85a105.75,105.75,0,0,1-.52,13c-1.53,12.17-7.29,18.42-19.32,21-4.47,1-9.06,1.33-14.16,2.06.35,3.05.62,5.5.87,7.66h106.49Zm-994.93-225.21c-.75,2.87-1.3,5.13-1.93,7.36-3.56,12.78-7.3,14.21-18,6.75-21.94-15.32-45.93-18.72-71.44-11.83-27.81,7.5-42.11,27-41.71,55.78.23,16.25,6.18,30.24,18,40.91,10.33,9.33,21.87,17.38,33.28,25.4,12.26,8.62,25.41,16,37.37,25a72.14,72.14,0,0,1,17.66,18.73c14.5,23.12,3.28,53.87-21.59,61.19-23.31,6.87-48.55-3.17-59.88-24.5a103.64,103.64,0,0,1-8.46-22.33c-2.83-10.88-4.57-22.05-6.87-33.61h-9.09c-.61,29.22-1.21,58.07-1.82,87.25a29.3,29.3,0,0,0,4.21.7,49.56,49.56,0,0,0,5.07-.43c1-3,1.77-5.93,2.85-8.69,3.17-8,6.57-9.29,13.31-3.88,12.45,10,26.71,14.8,42.33,16,20.75,1.56,40.71-1.4,58.5-12.84,21.22-13.64,29.43-33.54,26.26-58.34-2.43-19.06-13-33.45-27.48-44.87-12.28-9.66-25.46-18.19-38.4-27-10.46-7.12-21.58-13.34-31.6-21a63.12,63.12,0,0,1-16-17.49c-11.35-19.44-1.7-43.67,19.46-48.82,18.53-4.51,36.23-1.45,49.93,12.72,6.33,6.54,11.38,14.81,15.23,23.12s5.52,17.74,8.21,26.65a11.38,11.38,0,0,0,1.46,2.46h8.7c.59-24.86,1.16-49.33,1.75-74.33ZM747.2,2843.7c2.26-2.9,4.25-5.09,5.82-7.55,6.61-10.37,3.81-24.46-6.4-29.68-9.17-4.69-18.87-4.81-27.48,1.32s-10.26,15.24-8.22,25c2.1,10.1,8.67,16.25,18.4,19.11,19.39,5.7,42.71-2.25,53.74-19.27a141.69,141.69,0,0,0,12.76-25.91Q839.2,2694.47,882.14,2582c5.69-14.82,11.93-29.19,29.59-33.49-.33-3-.57-5.12-.81-7.23H840.67v7.28c6.87,1.58,13.49,2.52,19.7,4.66,10.38,3.58,14.68,11.13,12.7,21.88a100.77,100.77,0,0,1-4.91,17.26q-22.39,59.34-45.13,118.56c-.87,2.29-2.2,4.4-3.76,7.48-1.29-2.7-2.09-4.16-2.71-5.69q-25.6-63.46-51.12-126.95A90.51,90.51,0,0,1,761,2571.5c-2.83-13,2.07-19.63,15.41-21.19,4.58-.53,9.21-.56,14.81-.88-.2-3.17-.37-5.81-.56-8.81-34,2.35-66.83,3.89-100.21.23v8.59c13,1.32,20.48,9.49,26.4,19.62a61.83,61.83,0,0,1,3.64,7.11q39,93.6,78,187.2a13.82,13.82,0,0,1,.2,11.45c-5.31,12.94-9.76,26.25-15.53,39a91.76,91.76,0,0,1-13.26,20.92C764.45,2841.14,757,2845,747.2,2843.7Zm1317.91-132.15c-1.94,3.27-3.73,6.44-5.64,9.53-7,11.24-15.79,20.6-27.44,27.07-24.16,13.41-63.7,14.25-82.52-25.84a105,105,0,0,1-7.38-20.62,223.35,223.35,0,0,1,.27-103c3.22-13.72,8.84-26.53,18.14-37.42,16.84-19.71,43.35-24.72,66.09-12.42,4.92,2.66,9.71,5.65,12.5,11.4-2.81,1.78-5.37,3.19-7.7,4.92a24.94,24.94,0,0,0-9,26.74c2.4,8.72,10.56,14.83,21,15.75,16.5,1.46,28.34-11.55,25.92-28.69-2.14-15.14-11.34-25.39-24.12-32.45-22.23-12.28-46.09-15.14-70.66-9.49-36.65,8.44-59.71,32.48-72.18,66.87-12.06,33.27-12.24,67.26-2.11,101.11a103.43,103.43,0,0,0,27.75,45.6c40.4,38.82,120,36.2,144.32-33.55a15.5,15.5,0,0,0,.35-3.13,22.92,22.92,0,0,0-3.48-1.83A24.51,24.51,0,0,0,2065.11,2711.55Z"/><path d="M1340.64,1222.15c2.51-15.75,5-30.48,7.16-45.27,7.28-50.44,14.82-100.84,21.49-151.36q8.3-62.89,14.77-126c5-49.05,9.69-98.16,13.14-147.33,5.82-82.83,8.55-165.79,4.3-248.8-3.08-60.32-9.93-120.16-25.43-178.74-13.36-50.52-31.82-98.89-59.9-143.23-19.25-30.39-42.39-57.31-71.26-79A225,225,0,0,0,1120,56.64c-76.94-4.36-149.14,11.74-214.52,53.62Q820.2,164.92,780.78,258.7A30,30,0,0,0,778,270.3c2.58-3.3,5.11-6.65,7.77-9.89,47-57.28,107.77-84.69,181.38-77.36,78.83,7.86,136.73,50.1,170.5,121,39.51,82.95,31.86,164.18-24.71,237.06-83.29,107.32-243.38,104.83-327.24-3.28-29.27-37.72-44.45-80.76-47.79-128.21-5.08-72.24,9.89-140,47.26-202.06C835.3,124.32,908.67,72,1002.54,48.16c55.2-14,111.2-17.26,167.66-10.65,196.31,23,361.31,108.33,496.43,251.67,67.48,71.58,115.23,155.31,147.52,248.2,28,80.61,51.51,162.53,71.62,245.38,30.7,126.52,60.14,253.34,90.33,380,11.28,47.29,23.16,94.43,34.8,141.63.87,3.5,2.06,6.92,3.33,11.15,7.31-.48,14.21-.87,21.11-1.4,57.65-4.49,114.34-14.09,169.37-32.27,38.47-12.7,75-29.37,108.35-52.71,53.47-37.45,88-87.42,99.79-152.12,2.27-12.42,3.29-25.08,4.85-37.64.28-2.31.12-4.71.66-7,1.18-4.84,5-7.83,9.25-7.56a8.78,8.78,0,0,1,8.39,8.44,236.26,236.26,0,0,1-.66,25c-5.69,75.25-41.38,133.66-100.54,178.9-40.52,31-86.12,51.67-134.55,66.54-49.22,15.12-99.67,24-150.91,28.54-9.58.85-19.16,1.74-28.67,2.61-.52,10.66,43.31,169.77,52,188.49,8.12-1.34,16.55-2.69,25-4.12,64.54-11,129.46-17.46,195-14.9,79,3.08,155.59,17.87,227.27,52.32C2654.64,1621.43,2738,1728.1,2774,1872.47a445.91,445.91,0,0,1,11.49,148.84c-11.7,129.32-76.2,223.38-191.17,283-47.19,24.44-97.62,38.88-150.15,46.25a601.83,601.83,0,0,1-236.94-13.5c-95.41-24.74-172.09-78-233.07-154.74-40.89-51.48-72.79-108.31-100.24-167.78-38.17-82.71-68.54-168.36-95.83-255.16-8.19-26-15.88-52.24-23.82-78.37-.86-2.84-1.81-5.65-2.9-9a43.17,43.17,0,0,0-5.62,2.69c-104.45,71.58-185,163.2-234.44,280.66-24.67,58.6-38.87,119.69-40.53,183.35-1.58,60.5,8.56,118.83,35.66,173.48,17.49,35.25,41.47,65.1,74.49,87.16a22.85,22.85,0,0,1,5.28,4.49,9.88,9.88,0,0,1-.31,12c-3,3.61-6.73,4.24-10.74,2.24a66.35,66.35,0,0,1-8.46-5.28c-40.25-28.25-67.82-66.42-86.46-111.38-20.59-49.64-29.3-101.54-28.7-155.16,1-94.15,27.54-181.26,73.42-262.77,51.83-92.06,123.39-165.89,210.41-225.17.55-.37,1.13-.72,1.68-1.09,8.86-6,8.79-6,6.14-16-8.44-31.86-17.5-63.58-25.09-95.64q-27.48-116.16-53.65-232.62c-1.65-7.3-4.37-10.46-11.88-11.87q-143.35-26.91-286.58-54.4a89.74,89.74,0,0,0-9.35-.74c-3,17-5.77,33.37-8.72,49.69-34.49,190.32-83.91,376.28-161.69,554-37.24,85-80.47,166.84-133.22,243.35-61.18,88.75-137.88,160.51-233.73,210.91-65,34.17-134,55.91-207,63.56-141.44,14.83-270.88-18.53-386.37-101.46-90.52-65-146.69-154.09-173.9-261.67-16.78-66.31-20-133.57-12.35-201.43,9.8-87.3,33.72-170.44,74.68-248.27,54.31-103.21,134.54-181.23,235.22-238.94,70.16-40.22,145.26-67.91,223.48-87.58,62.46-15.71,125.85-25.93,189.9-32.41,89-9,178.29-10.87,267.64-7.11q103.91,4.37,207,19c31.65,4.48,63.24,9.39,94.87,14.07C1334.71,1221.88,1337,1221.89,1340.64,1222.15Zm-3,20.52c-3.81-1-6.29-1.91-8.85-2.32-61.84-9.86-123.8-18.73-186.15-24.82-67.72-6.62-135.55-10.37-203.6-9.32-43.35.67-86.51,3.73-129.23,11.68-94.74,17.63-176.54,60.55-246,126.9-43.85,41.9-76.71,92-103.64,146-54.61,109.54-81.27,226.41-90,347.83a930.81,930.81,0,0,0-.5,124.87c3.39,54.37,11.47,107.94,26.66,160.3,13.07,45,31,87.94,58.23,126.46,25.38,35.88,57.51,63.73,98.28,80.85,31.06,13,62.95,18.12,96.67,11.44,38.7-7.67,76.37-18.48,112.78-33.49,97.05-40,177-102.75,242.69-184.06,42.48-52.57,76.94-110.37,108.69-169.8,60.2-112.64,105.72-231.22,142.34-353.38,27.66-92.25,49.65-185.88,67.61-280.47C1328.52,1295.54,1332.83,1269.61,1337.61,1242.67Zm740.16,299.61c.75,3,1,4.29,1.39,5.52,8.26,26,16.37,52.09,24.84,78,32.15,98.47,66.48,196.13,108.08,291.08,26.37,60.18,55.57,118.91,92.36,173.52,29.48,43.75,61.68,85.38,100.58,121.32,25.4,23.48,53.56,42.87,86.17,55.14,42.83,16.11,85.3,16.28,127.09-3.61,29.11-13.87,53.13-34.3,73.39-59.08,49-59.93,73.32-129.11,76.16-206.11A438.86,438.86,0,0,0,2754,1871.38c-30.21-116.71-94.27-209.28-197.43-273.06-77.79-48.1-163.88-69.13-254.35-74.09-59.77-3.27-119.19,1.28-178.3,10.22C2108.79,1536.73,2093.78,1539.55,2077.77,1542.28Zm-717.84-316.75c50.18,9.49,99.18,18.88,148.23,28s98,20,148.31,28.5c-.61-4.28-.87-6.9-1.37-9.48-12.22-62.41-24.78-124.76-36.65-187.23-27.65-145.58-54.63-291.27-82.57-436.79C1522,576.27,1506,504.43,1486,433.56c-17.35-61.4-39.47-120.92-70.33-176.94-31.27-56.78-70.92-106.36-124.39-144-2.86-2-5.79-3.9-8.93-6-.17,1-.36,1.43-.24,1.59a37,37,0,0,0,3.15,3.79c31.34,30.75,54.55,67.09,73.21,106.54,28,59.26,44,122,53.28,186.61,9.65,67.46,12.7,135.37,11.07,203.42-1.16,48.28-3.54,96.57-6.63,144.78-2.7,42.21-6.57,84.37-11,126.44-5.06,48-10.94,96-17.15,143.87-6.67,51.52-14.1,102.94-21.25,154.4C1364.66,1193.54,1362.34,1209,1359.93,1225.53Z"/><path d="M381.61,2760.52v8.13H279.27c-.29-2-.63-4.49-1.09-7.72,4.15-.49,7.7-.81,11.23-1.33,14.89-2.2,21.61-9.38,22.64-24.51.38-5.65.28-11.33.28-17,0-42.33.08-84.65-.07-127a95.76,95.76,0,0,0-1.76-19.81c-2.85-13.07-10.14-19.31-23.26-21.19-2.59-.38-5.21-.54-8.26-.85v-8.51c24.52,1.73,48.37,1.42,73-4.77v46.73l1.88.49q2.9-4.9,5.78-9.82c18.13-30.88,50.6-45,85.37-36.88,20.71,4.84,34,17.4,38.75,38.48.56,2.49,1.2,5,2.23,9.18,2.43-4.24,4.07-6.92,5.55-9.69,20.91-39.2,62.53-45.94,93.35-36.22,16.42,5.18,27.74,16.09,31.44,33.17A159.67,159.67,0,0,1,620.1,2603c.45,40,.17,80,.28,120a98.39,98.39,0,0,0,1.16,15.91c2.07,12.54,7.44,17.87,20,20.28,3.87.75,7.84,1,12.23,1.48v8H552.11c-.17-2.41-.35-4.87-.52-7.32a14.08,14.08,0,0,1,3.31-1.15c18.63-.8,25.16-10,25.31-27.74.22-24.66.12-49.33.12-74,0-22.33.16-44.66-.19-67a99.23,99.23,0,0,0-2.57-21.74c-2.76-11.37-10.24-18.25-22.13-20.21-17.08-2.82-31.67,2.16-44,13.86-13.9,13.19-20.58,30.08-23.3,48.63a157.45,157.45,0,0,0-1.47,21.92c-.16,29.66-.11,59.32,0,89a111.43,111.43,0,0,0,1,14.94c1.83,13.34,7.7,19.3,21,21.58,3.27.55,6.6.66,10.94,1.08.16,2.62.32,5.3.49,8.14H418.25c-.25-2-.58-4.68-.94-7.64,2.16-.45,3.4-.81,4.68-1,17.32-2,23.75-8.27,24.07-25.66.5-27.32.25-54.66.27-82,0-20.67.14-41.33-.21-62a93.27,93.27,0,0,0-2.54-20.74c-2.82-11.36-10.27-18.24-22.17-20.18-17.07-2.78-31.64,2.27-44,13.9C364,2576,357.24,2592.2,354.24,2610a143.38,143.38,0,0,0-1.83,22.87c-.19,30.66-.13,61.32,0,92a95.26,95.26,0,0,0,1.16,14.91c2.16,13.15,7.64,18.22,21,20.06C376.52,2760.08,378.5,2760.21,381.61,2760.52Z"/><path d="M2234.27,2760.66v8H2132.38c-.17-2.35-.36-4.82-.54-7.3a13.81,13.81,0,0,1,3.25-1.15c25.07-.9,30.49-11.5,30.53-33.72q.18-113.47,0-226.95c0-12,.15-24-.88-36-1.82-21.09-11.83-27.32-28.07-29-1.31-.13-2.61-.45-4.34-.76-.18-2.25-.37-4.49-.65-8,24.53.32,48.83,2.37,73.7-5.43v161.16l2,.51c1.23-2.15,2.52-4.27,3.68-6.45,22.13-41.63,66.1-46.76,96.92-37.34,16.06,4.9,27.08,15.94,31.61,32.08a116,116,0,0,1,4.41,29.49c.51,41,.23,82,.35,123a100.68,100.68,0,0,0,1.12,15.91c2.05,12.63,7.36,18,19.82,20.43,3.87.77,7.84,1,12.33,1.51v8H2275.31c-.12-2.45-.23-4.9-.38-7.84,4.18-.59,7.77-.94,11.3-1.62,9.1-1.78,15-7.16,16.71-16.33a80.66,80.66,0,0,0,1.33-14.88q.14-65.49,0-131a133.6,133.6,0,0,0-1.65-19.87c-3.25-20.85-16.83-30-38.77-28.23-20.12,1.6-35,12.12-45.26,29.09-9,14.9-12.82,31.34-12.85,48.67-.05,34.32-.16,68.65,0,103C2205.86,2752,2211.3,2757.88,2234.27,2760.66Z"/><path d="M1204.54,2548.4v-7.05h87.81c.3,1.9.67,4.31,1.13,7.19-2.79.75-5,1.37-7.13,1.9-9.91,2.38-19.18,6.49-26.33,13.67-20.44,20.51-40.42,41.46-60.78,62.44,1.85,2.88,3.14,5.15,4.68,7.25q37.5,51.22,75.06,102.4c1.58,2.15,3.22,4.25,4.84,6.36,6.67,8.66,14.68,15.41,26.07,17.88v8.19h-83.67c-.32-2.05-.71-4.47-1-6.49,1.06-.95,1.51-1.7,2-1.76,12.11-1.41,13.59-9.07,7.09-18.24-16.76-23.65-32.78-47.82-49.33-71.62-10.29-14.81-16.62-18.34-32.52-19.07a67.28,67.28,0,0,0-.77,7.39q-.09,35,0,70c0,1,0,2,0,3,.35,20.64,8.63,27.66,25.78,28.38a8.15,8.15,0,0,1,2.09.77,7.45,7.45,0,0,1,.93,2.47,41.73,41.73,0,0,1-.46,5.19H1078.51c-.25-2.16-.53-4.64-.82-7.13,1.39-.58,2.26-1,3.17-1.3a10,10,0,0,1,2-.18c21.22-1.82,28.27-8.91,28.67-30.34.42-22.32.14-44.66.15-67q0-91.49-.06-183a136.46,136.46,0,0,0-1.37-19.9c-2.29-15.46-8.86-21.88-24.37-24.69-2.29-.41-4.59-.78-7.5-1.28v-7.67c12.23,0,24.19.54,36.07-.15s23.72-2.6,36.43-4.08c1.88,9.51.48,19.7.73,29.8.26,10.66.06,21.33.06,32v157.32c14.09-.94,25.59-5.65,34.85-14.83,13.48-13.37,26.64-27.08,39.62-40.95a51.55,51.55,0,0,0,8.87-13.18c4.2-9,1.45-15.93-7.91-19.07C1220.26,2550.74,1212.88,2550,1204.54,2548.4Z"/><path d="M1355.19,2549.3v-8.42c24.38,1.45,48.51,1.5,73.41-5.09v12.78c0,52.31-.07,104.62.06,156.93a252.17,252.17,0,0,0,1.37,26.93c2.24,20.28,14.35,30.08,34.71,28.69,15.91-1.09,28.6-8.29,38.52-20.5,11.52-14.18,18-30.8,18.43-48.73.88-37.3.83-74.63.17-111.93-.35-20.38-8.84-27.69-32.46-30.9-.27-2.22-.56-4.64-1-8.2,25,1.49,49.15,1.46,73.92-5v12.65q0,83.47.06,166.93a136.45,136.45,0,0,0,1.36,19.9c2.35,15.68,9.88,22.74,25.48,24.68,2,.24,3.92.38,6.18.6a24.71,24.71,0,0,1,.81,4,30.5,30.5,0,0,1-.66,4.55c-24.45-1.81-48.55-1.25-73.12,4.91v-45.7l-1.66-.61c-1.73,2.94-3.46,5.87-5.18,8.82-18,30.8-50.83,45-85.39,36.78-23.45-5.54-37-21-40-46.45a247.74,247.74,0,0,1-1.75-27.9c-.2-36.31,0-72.63-.15-108.95a90.28,90.28,0,0,0-1.42-17.86c-2.89-14.05-10.28-20.44-24.51-22.25C1360.37,2549.75,1358.39,2549.61,1355.19,2549.3Z"/><path d="M68.79,2558.64c2.85,1.73,5.41,3.1,7.78,4.75a28,28,0,0,1,10.54,31.88c-3.16,9.1-11.41,14.57-22.63,15-11.69.44-20-4.41-23.85-14.35-4.55-11.86-3.45-23.45,5.37-32.64,6.34-6.6,13.86-12.78,22-16.8,25.66-12.65,52.89-15.42,80.76-8.82,25.57,6.06,40.12,22.62,43.12,48.65a252.46,252.46,0,0,1,1.69,27.9c.18,39.65.07,79.3.1,119a88.51,88.51,0,0,0,.47,12c1.45,10.46,8.46,15.13,18.56,11.91,5-1.58,9.48-4.59,14.67-7.19l4.38,5.52c-5.95,6.83-13.37,11.06-21.44,14.05-10.27,3.8-21,3.86-31.55,1.71-13.5-2.73-21.44-11.41-24.31-24.76-.63-2.92-.81-5.93-1.26-9.4-4.32.7-5.5,4.57-7.67,7.09-21.19,24.55-48,33-79.14,26.05-37.2-8.34-51.23-52-25.95-80.8a88.32,88.32,0,0,1,24.23-18.89c15.49-8.34,31.93-14.92,47.94-22.32,9.06-4.18,18.23-8.17,27-12.88,9.59-5.15,14.46-13.31,13.84-24.59-.64-11.63-.11-23.36-1.34-34.91-2.18-20.6-13.61-31.23-34.17-31.75a142.75,142.75,0,0,0-28.72,2.44C81.42,2547.83,74.17,2551.48,68.79,2558.64ZM153,2637.15c-11.38,6.08-21.59,11.57-31.83,17-9.1,4.81-18.55,9.05-27.31,14.41-21.05,12.88-28.72,32.29-25.66,56.26,2,15.88,12.44,27,27.14,29.11,12.66,1.87,24.84,0,35-8,6.72-5.26,12.36-11.93,18.3-18.15,3.86-4.05,4.88-9.06,4.82-14.68-.22-22.61-.08-45.22-.1-67.83C153.38,2642.7,153.16,2640.14,153,2637.15Z"/><path d="M2622.05,2631.67H2482.94c-1.6,16.59-2,32.15-.19,47.68,1.53,13,4.82,25.55,11,37.15a117,117,0,0,0,9.51,15.21c28.2,37.54,77.12,28.43,98,2.38,5.17-6.44,9.49-13.58,14.71-21.14l7.11,2.45c.09,1.45.34,2.17.14,2.72-14.47,38.71-52.17,61.3-93.2,57.08-49.21-5-77.34-36.09-87.26-76.89a168,168,0,0,1,5.61-99.3c11.76-32,33.39-54.13,67.56-62a103.23,103.23,0,0,1,52.38,1.39c19.23,5.52,33.66,17.24,42.55,35.26S2622.81,2610.67,2622.05,2631.67Zm-42.62-9.23c.79-19-1.32-36.26-8.14-52.8a57.5,57.5,0,0,0-6.9-12.09c-9.79-13.25-24.4-18.13-39.78-12.24a50.23,50.23,0,0,0-18.16,11.73c-17.07,18.07-21.45,41-23.88,65.4Z"/><path d="M2793.68,2760.67v8H2687.19c-.25-2.16-.52-4.61-.87-7.66,5.1-.73,9.69-1.1,14.16-2.06,12-2.58,17.79-8.83,19.32-21a105.75,105.75,0,0,0,.52-13q0-124.42-.05-248.85a109.2,109.2,0,0,0-1.42-18.87c-2.21-12.53-9.7-20.08-22.59-21.86-3-.4-5.87-1-9.25-1.65-.17-2.3-.33-4.52-.57-7.86,24.59.18,48.95,2.39,73.89-5.48V2433q0,143.92.05,287.84a114.89,114.89,0,0,0,1.15,17.89c2,12.6,7.36,17.93,19.84,20.39C2785.24,2759.92,2789.21,2760.14,2793.68,2760.67Z"/><path d="M1798.75,2535.46H1808c-.59,25-1.16,49.47-1.75,74.33h-8.7a11.38,11.38,0,0,1-1.46-2.46c-2.69-8.91-4.34-18.29-8.21-26.65s-8.9-16.58-15.23-23.12c-13.7-14.17-31.4-17.23-49.93-12.72-21.16,5.15-30.81,29.38-19.46,48.82a63.12,63.12,0,0,0,16,17.49c10,7.68,21.14,13.9,31.6,21,12.94,8.8,26.12,17.33,38.4,27,14.5,11.42,25,25.81,27.48,44.87,3.17,24.8-5,44.7-26.26,58.34-17.79,11.44-37.75,14.4-58.5,12.84-15.62-1.17-29.88-6-42.33-16-6.74-5.41-10.14-4.16-13.31,3.88-1.08,2.76-1.86,5.64-2.85,8.69a49.56,49.56,0,0,1-5.07.43,29.3,29.3,0,0,1-4.21-.7c.61-29.18,1.21-58,1.82-87.25h9.09c2.3,11.56,4,22.73,6.87,33.61a103.64,103.64,0,0,0,8.46,22.33c11.33,21.33,36.57,31.37,59.88,24.5,24.87-7.32,36.09-38.07,21.59-61.19a72.14,72.14,0,0,0-17.66-18.73c-12-9-25.11-16.36-37.37-25-11.41-8-23-16.07-33.28-25.4-11.81-10.67-17.76-24.66-18-40.91-.4-28.74,13.9-48.28,41.71-55.78,25.51-6.89,49.5-3.49,71.44,11.83,10.71,7.46,14.45,6,18-6.75C1797.45,2540.59,1798,2538.33,1798.75,2535.46Z"/><path d="M747.2,2843.7c9.84,1.28,17.25-2.56,22.66-9a91.76,91.76,0,0,0,13.26-20.92c5.77-12.72,10.22-26,15.53-39a13.82,13.82,0,0,0-.2-11.45q-39.09-93.55-78-187.2a61.83,61.83,0,0,0-3.64-7.11c-5.92-10.13-13.38-18.3-26.4-19.62v-8.59c33.38,3.66,66.23,2.12,100.21-.23.19,3,.36,5.64.56,8.81-5.6.32-10.23.35-14.81.88-13.34,1.56-18.24,8.21-15.41,21.19a90.51,90.51,0,0,0,4.46,14.28q25.45,63.51,51.12,126.95c.62,1.53,1.42,3,2.71,5.69,1.56-3.08,2.89-5.19,3.76-7.48q22.65-59.25,45.13-118.56a100.77,100.77,0,0,0,4.91-17.26c2-10.75-2.32-18.3-12.7-21.88-6.21-2.14-12.83-3.08-19.7-4.66v-7.28h70.25c.24,2.11.48,4.28.81,7.23-17.66,4.3-23.9,18.67-29.59,33.49Q839,2694.42,795.82,2806.76a141.69,141.69,0,0,1-12.76,25.91c-11,17-34.35,25-53.74,19.27-9.73-2.86-16.3-9-18.4-19.11-2-9.8-.36-18.93,8.22-25s18.31-6,27.48-1.32c10.21,5.22,13,19.31,6.4,29.68C751.45,2838.61,749.46,2840.8,747.2,2843.7Z"/><path d="M2065.11,2711.55a24.51,24.51,0,0,1,4.1.58,22.92,22.92,0,0,1,3.48,1.83,15.5,15.5,0,0,1-.35,3.13c-24.37,69.75-103.92,72.37-144.32,33.55a103.43,103.43,0,0,1-27.75-45.6c-10.13-33.85-10-67.84,2.11-101.11,12.47-34.39,35.53-58.43,72.18-66.87,24.57-5.65,48.43-2.79,70.66,9.49,12.78,7.06,22,17.31,24.12,32.45,2.42,17.14-9.42,30.15-25.92,28.69-10.47-.92-18.63-7-21-15.75a24.94,24.94,0,0,1,9-26.74c2.33-1.73,4.89-3.14,7.7-4.92-2.79-5.75-7.58-8.74-12.5-11.4-22.74-12.3-49.25-7.29-66.09,12.42-9.3,10.89-14.92,23.7-18.14,37.42a223.35,223.35,0,0,0-.27,103,105,105,0,0,0,7.38,20.62c18.82,40.09,58.36,39.25,82.52,25.84,11.65-6.47,20.48-15.83,27.44-27.07C2061.38,2718,2063.17,2714.82,2065.11,2711.55Z"/><path class="cls-1" d="M1337.61,1242.67c-4.78,26.94-9.09,52.87-14,78.7-18,94.59-39.95,188.22-67.61,280.47-36.62,122.16-82.14,240.74-142.34,353.38-31.75,59.43-66.21,117.23-108.69,169.8-65.71,81.31-145.64,144.06-242.69,184.06-36.41,15-74.08,25.82-112.78,33.49-33.72,6.68-65.61,1.6-96.67-11.44-40.77-17.12-72.9-45-98.28-80.85-27.25-38.52-45.16-81.43-58.23-126.46-15.19-52.36-23.27-105.93-26.66-160.3a930.81,930.81,0,0,1,.5-124.87c8.75-121.42,35.41-238.29,90-347.83,26.93-54,59.79-104.13,103.64-146,69.42-66.35,151.22-109.27,246-126.9,42.72-8,85.88-11,129.23-11.68,68-1,135.88,2.7,203.6,9.32,62.35,6.09,124.31,15,186.15,24.82C1331.32,1240.76,1333.8,1241.65,1337.61,1242.67Z"/><path class="cls-1" d="M2077.77,1542.28c16-2.73,31-5.55,46.1-7.83,59.11-8.94,118.53-13.49,178.3-10.22,90.47,5,176.56,26,254.35,74.09,103.16,63.78,167.22,156.35,197.43,273.06a438.86,438.86,0,0,1,13.88,126.71c-2.84,77-27.18,146.18-76.16,206.11-20.26,24.78-44.28,45.21-73.39,59.08-41.79,19.89-84.26,19.72-127.09,3.61-32.61-12.27-60.77-31.66-86.17-55.14-38.9-35.94-71.1-77.57-100.58-121.32-36.79-54.61-66-113.34-92.36-173.52-41.6-95-75.93-192.61-108.08-291.08-8.47-25.94-16.58-52-24.84-78C2078.76,1546.57,2078.52,1545.28,2077.77,1542.28Z"/><path class="cls-1" d="M1359.93,1225.53c2.41-16.55,4.73-32,6.88-47.46,7.15-51.46,14.58-102.88,21.25-154.4,6.21-47.9,12.09-95.84,17.15-143.87,4.43-42.07,8.3-84.23,11-126.44,3.09-48.21,5.47-96.5,6.63-144.78,1.63-68.05-1.42-136-11.07-203.42-9.25-64.6-25.25-127.35-53.28-186.61-18.66-39.45-41.87-75.79-73.21-106.54a37,37,0,0,1-3.15-3.79c-.12-.16.07-.56.24-1.59,3.14,2.11,6.07,4,8.93,6,53.47,37.62,93.12,87.2,124.39,144,30.86,56,53,115.54,70.33,176.94,20,70.87,36,142.71,49.86,215,27.94,145.52,54.92,291.21,82.57,436.79,11.87,62.47,24.43,124.82,36.65,187.23.5,2.58.76,5.2,1.37,9.48-50.26-8.51-99.13-19.36-148.31-28.5S1410.11,1235,1359.93,1225.53Z"/><path class="cls-1" d="M153,2637.15c.15,3,.37,5.55.38,8.11,0,22.61-.12,45.22.1,67.83.06,5.62-1,10.63-4.82,14.68-5.94,6.22-11.58,12.89-18.3,18.15-10.18,8-22.36,9.87-35,8-14.7-2.16-25.11-13.23-27.14-29.11-3.06-24,4.61-43.38,25.66-56.26,8.76-5.36,18.21-9.6,27.31-14.41C131.42,2648.72,141.63,2643.23,153,2637.15Z"/><path class="cls-1" d="M2579.43,2622.44h-96.86c2.43-24.39,6.81-47.33,23.88-65.4a50.23,50.23,0,0,1,18.16-11.73c15.38-5.89,30-1,39.78,12.24a57.5,57.5,0,0,1,6.9,12.09C2578.11,2586.18,2580.22,2603.49,2579.43,2622.44Z"/></g></g></svg>