<?xml version="1.0" encoding="utf-8"?>
<!-- Generator: Adobe Illustrator 16.0.0, SVG Export Plug-In . SVG Version: 6.00 Build 0)  -->
<!DOCTYPE svg PUBLIC "-//W3C//DTD SVG 1.1//EN" "http://www.w3.org/Graphics/SVG/1.1/DTD/svg11.dtd">
<svg version="1.1" id="Layer_1" xmlns="http://www.w3.org/2000/svg" xmlns:xlink="http://www.w3.org/1999/xlink" x="0px" y="0px"
	 width="2351px" height="645.207px" viewBox="0 0 2351 645.207" enable-background="new 0 0 2351 645.207" xml:space="preserve">
<g>
	<defs>
		<rect id="SVGID_1_" x="819.951" y="-51.004" width="711.098" height="622.211"/>
	</defs>
	<clipPath id="SVGID_2_">
		<use xlink:href="#SVGID_1_"  overflow="visible"/>
	</clipPath>
	<path clip-path="url(#SVGID_2_)" d="M1209.748,510.387c-11.176-7.299-18.951-18.913-23.104-34.521
		c-3.947-14.836-3.768-31.68,0.523-48.707c3.211-12.74,8.578-25.078,15.959-36.674c7.936-12.467,18.01-23.749,29.943-33.531
		c4.105-3.364,8.525-6.611,13.135-9.649c0.236-0.155,0.383-0.541,0.307-0.813c-5.949-21.41-11.707-45.371-17.6-73.253
		c-0.063-0.29-0.381-0.604-0.672-0.658c-7.107-1.331-14.441-2.77-21.932-4.241c-13.621-2.674-27.707-5.438-42.323-7.948
		c-0.007,0-0.011-0.001-0.017-0.001c-0.259,0-0.42,0.142-0.453,0.336c-5.931,36.155-14.242,69.535-24.706,99.214
		c-10.774,30.564-23.867,57.387-38.911,79.724c-7.833,11.629-16.917,21.856-27,30.398c-9.513,8.056-19.956,14.654-31.038,19.609
		c-16.092,7.197-33.074,10.847-50.475,10.847c-18.548,0-36.613-4.269-52.243-12.342c-51.025-24.133-70.428-82.143-48.271-144.343
		c22.592-63.417,86.348-96.49,187.788-95.934c27.234,0.148,54.053,3.127,81.125,7.622h0.014c0.26,0,0.422-0.142,0.453-0.336
		c7.861-50.049,18.49-128.382,10.456-177.231c-3.329-20.254-9.974-37.406-19.212-49.601c-10.371-13.692-23.69-20.981-39.588-21.666
		c-1.257-0.055-2.507-0.082-3.749-0.082c-10.407,0-20.321,1.907-29.465,5.666c-9.694,3.985-18.149,9.866-25.129,17.479
		c-6.08,6.631-10.781,14.243-13.829,22.674c-0.443,1.226-0.768,1.784,0.345,0.159c8.186-11.978,21.689-19.129,36.121-19.129
		c27.071,0,48.07,24.337,45.429,51.829c-2.284,23.76-21.375,41.677-44.406,41.677c-23.253,0-42.666-17.958-45.393-42.303
		c-2.364-21.107,4.456-42.131,18.709-57.678c7.39-8.061,16.337-14.285,26.593-18.502c8.062-3.312,18.606-5.648,28.209-6.25
		c2.048-0.127,4.174-0.193,6.319-0.193c52.311,0,121.564,35.136,146.877,100.253c11.191,28.792,20.297,67.997,29.939,109.504
		c4.77,20.542,9.703,41.782,15.184,63.133c0.063,0.246,0.33,0.451,0.586,0.451c6.949-0.41,13.67-1.16,20-2.23
		c20.598-3.48,37.361-10.46,48.482-20.183c10.846-9.481,16.492-21.694,17.266-37.336c0.166-3.304,4.057-2.858,3.982,0.049
		c-0.461,17.337-6.01,29.412-18.549,40.373c-11.861,10.369-28.85,17.482-50.5,21.141c-6.285,1.063-12.945,1.816-19.783,2.242
		c-0.094,0.006-0.17,0.04-0.209,0.098c-0.041,0.057-0.051,0.135-0.027,0.226c3.76,14.43,7.389,27.395,11.104,39.634
		c0.061,0.205,0.277,0.359,0.498,0.359c7.211-1.375,14.566-2.452,21.947-3.21c6.391-0.656,12.688-0.989,18.713-0.989
		c44.166,0,70.176,17.684,84.217,32.518c10.766,11.374,18.824,25.594,23.307,41.125c3.869,13.402,5.02,27.431,3.33,40.567
		c-6.158,49.015-53.211,71.595-102.09,67.156c-44.504-4.044-71.779-26.412-94.143-77.208c-8.455-19.199-16.141-41.486-23.822-68.029
		c-0.119-0.412-0.27-0.447-0.666-0.183c-4.059,2.711-7.965,5.623-11.635,8.631c-11.596,9.503-21.383,20.459-29.084,32.561
		c-7.143,11.223-12.34,23.158-15.439,35.474c-4.123,16.355-4.309,32.487-0.541,46.648c3.891,14.61,11.299,25.735,21.426,32.174
		C1214.16,508.337,1212.508,512.196,1209.748,510.387 M1079.441,252c-29.809,0-53.308,3.956-78.313,23.648
		c-24.524,19.312-42.143,57.25-47.129,101.483c-4.679,41.493,2.737,80.055,19.353,100.635
		c10.373,12.851,23.896,17.428,33.092,17.428c5.304,0,19.903-3.074,33.742-9.268c10.732-4.798,20.845-11.19,30.06-18.992
		c9.796-8.298,18.628-18.243,26.25-29.562c14.853-22.051,27.788-48.562,38.446-78.795c10.383-29.458,18.637-62.609,24.529-98.531
		c0.036-0.225-0.117-0.438-0.344-0.477C1128.022,254.405,1102.701,252,1079.441,252 M1357.049,319.659
		c-5.867,0-11.979,0.322-18.17,0.958c-7.15,0.736-14.273,1.774-21.172,3.086c-0.098,0.019-0.178,0.071-0.221,0.146
		c-0.045,0.074-0.055,0.17-0.023,0.265c27.832,89.563,44.93,114.388,61.41,133.78c16.137,18.989,30.555,22.976,39.811,22.976
		c23.078,0,41.031-25.592,44.939-49.3c2.148-13.031,1.156-27.292-2.867-41.24c-4.301-14.901-12.027-28.539-22.346-39.441
		C1419.074,330.458,1390.939,319.659,1357.049,319.659 M1151.443,21.795c1.128,1.287,2.236,2.648,3.322,4.082
		c9.639,12.724,16.551,30.502,19.989,51.413c6.886,41.874,1.281,98.494-9.255,170.629c-0.389,2.66-0.789,5.308-1.203,7.939
		c-0.037,0.229,0.121,0.446,0.348,0.485c14.621,2.51,28.766,5.286,42.447,7.973c6.863,1.347,13.572,2.738,20.123,3.899
		c0.307,0.055,0.492,0.11,0.391-0.377c-5.637-27.476-10.506-54.221-15.299-80.075c-8.715-46.992-16.24-87.577-24.682-112.105
		c-8.756-25.448-20.288-43.579-35.257-54.925C1141.879,12.782,1148.711,18.676,1151.443,21.795"/>
</g>
<g>
	<path d="M714.473,609.102h-21.108l-10.888,27.148c-0.749,1.953-1.123,3.158-1.123,3.613c0,1.074,0.797,1.611,2.393,1.611v0.732
		h-10.693v-0.732c1.431,0,2.634-0.35,3.609-1.05c0.975-0.7,2.049-2.517,3.22-5.447l26.07-65.769h1.292l25.644,63.517
		c0,0.327,0.657,1.866,1.972,4.619c1.315,2.754,3.32,4.13,6.015,4.13v0.732h-16.797v-0.732c1.53,0,2.295-0.602,2.295-1.807
		c0-0.813-0.375-2.115-1.123-3.906c-0.13-0.13-0.244-0.342-0.342-0.635c-0.065-0.325-0.114-0.488-0.146-0.488L714.473,609.102z
		 M694.055,607.1h19.453l-9.718-24.512L694.055,607.1z"/>
	<path d="M841.015,570.283h11.354v0.732c-3.837,0.195-5.756,2.199-5.756,6.01c0,0.814,0.098,1.938,0.293,3.371l7.563,54.486
		c0.456,2.715,0.968,4.451,1.538,5.21c0.569,0.76,1.75,1.22,3.54,1.382v0.732h-16.162v-0.732c2.154,0.065,3.232-0.969,3.232-3.104
		c0-0.485-0.098-1.439-0.293-2.862l-7.382-52.823l-25.781,59.521h-0.488l-25.928-59.424l-7.294,53.123
		c-0.13,0.807-0.195,1.727-0.195,2.76c0,1.872,1.096,2.809,3.291,2.809v0.732h-10.986v-0.732c1.66,0,2.726-0.203,3.198-0.61
		c0.472-0.406,0.838-1.058,1.099-1.953c0.26-0.895,0.456-1.896,0.586-3.003l8.225-58.103c-1.338-3.224-2.677-5.161-4.015-5.813
		c-1.338-0.651-2.627-0.978-3.868-0.978v-0.732h13.563l25.294,58.829L841.015,570.283z"/>
	<path d="M935.738,570.283h10.791v0.732c-1.367,0.098-2.49,0.424-3.369,0.977c-0.879,0.554-1.888,1.693-3.027,3.418l-17.578,26.664
		v32.923c0,2.663,0.345,4.407,1.035,5.235c0.689,0.829,2.184,1.242,4.483,1.242v0.732h-19.238v-0.732
		c3.678,0.229,5.518-1.219,5.518-4.343l-0.098-2.05v-30.4l-17.627-29.174c-1.855-3.092-3.923-4.59-6.201-4.492v-0.732h16.992v0.732
		c-1.584,0-2.375,0.602-2.375,1.803c0,0.617,0.407,1.575,1.221,2.874l14.509,23.937l15.844-24.122
		c0.293-0.26,0.618-0.74,0.977-1.439c0.358-0.699,0.537-1.18,0.537-1.44c0-1.074-0.699-1.611-2.099-1.611h-0.293V570.283z"/>
	<path d="M1039.146,570.283h20.605v0.732c-2.246-0.098-3.825,0.236-4.736,1.001c-0.912,0.766-1.367,2.759-1.367,5.981v27.588
		l42.725-32.08c0.846-0.586,1.27-1.123,1.27-1.611c0-0.586-0.96-0.879-2.881-0.879v-0.732h15.527v0.732
		c-3.909,0.098-7.72,1.527-11.433,4.288l-37.232,27.773l37.142,28.203c0.032,0.033,0.081,0.065,0.146,0.098
		c0.065,0.033,0.114,0.082,0.146,0.146c0.065,0.033,0.13,0.049,0.195,0.049c4.879,3.644,8.662,6.205,11.349,7.684
		s5.203,2.218,7.548,2.218v0.732h-24.463v-0.732c2.181,0,3.271-0.244,3.271-0.732c0-0.423-0.896-1.318-2.686-2.686l-40.625-30.859
		v26.671c0,3.12,0.22,5.038,0.659,5.753c0.439,0.716,1.025,1.228,1.758,1.537c0.732,0.309,1.929,0.414,3.589,0.316v0.732h-20.508
		v-0.732c2.734,0.131,4.451-0.284,5.151-1.244c0.7-0.96,1.05-2.984,1.05-6.075v-55.771c0-3.188-0.35-5.253-1.05-6.197
		c-0.7-0.942-2.417-1.333-5.151-1.171V570.283z"/>
	<path d="M1219.488,642.207h-13.623v-11.084c-6.927,7.715-15.187,11.572-24.779,11.572c-7.122,0-12.772-2.002-16.951-6.006
		s-6.268-9.537-6.268-16.602v-43.066c0-2.604-0.31-4.256-0.928-4.956c-0.619-0.699-2.067-1.05-4.346-1.05v-0.732h19.092v0.732
		c-2.019,0-3.442,0.317-4.272,0.952s-1.245,2.141-1.245,4.517v39.502c0,8.269,1.934,14.169,5.803,17.7
		c3.869,3.532,8.274,5.298,13.217,5.298c7.771,0,14.662-3.499,20.678-10.498v-48.682c0-4.264-0.375-6.795-1.123-7.593
		c-0.749-0.797-1.921-1.196-3.516-1.196h-0.684v-0.732h18.945v0.732c-2.344,0.131-3.816,0.521-4.419,1.171
		c-0.603,0.651-0.903,1.887-0.903,3.709v58.553c0,2.31,0.113,3.822,0.342,4.538c0.228,0.715,0.691,1.31,1.392,1.781
		s1.896,0.707,3.589,0.707V642.207z"/>
	<path d="M1291.969,571.211l3.418,8.984l-0.586,0.098c0-0.032-0.903-0.992-2.71-2.881c-1.807-1.888-3.874-3.345-6.201-4.37
		s-4.956-1.538-7.886-1.538c-4.916,0-8.813,1.408-11.694,4.224c-2.881,2.816-4.321,6.21-4.321,10.181
		c0,2.637,0.676,4.94,2.026,6.909c1.351,1.97,4.173,3.807,8.466,5.51c7.383,2.49,12.436,4.362,15.156,5.614s5.343,3.373,7.868,6.365
		s3.788,6.829,3.788,11.511c0,1.952-0.229,3.813-0.684,5.586c-0.456,1.771-1.188,3.479-2.197,5.121
		c-1.01,1.643-2.222,3.139-3.638,4.487c-1.416,1.35-2.856,2.375-4.321,3.073c-1.465,0.699-3.776,1.228-6.934,1.586
		c-3.158,0.357-5.241,0.536-6.25,0.536h-19.189v-20.898h0.732c0.064,6.934,1.692,11.768,4.883,14.502
		c3.189,2.734,8.154,4.102,14.893,4.102c6.119,0,10.767-1.448,13.94-4.346c3.174-2.896,4.761-6.38,4.761-10.449
		c0-2.474-0.554-4.581-1.66-6.323c-1.107-1.741-2.653-3.271-4.639-4.59c-1.986-1.318-5.743-2.927-11.273-4.825
		c-5.498-1.933-9.362-3.621-11.595-5.068s-4.099-3.627-5.597-6.538c-1.499-2.91-2.248-5.878-2.248-8.903
		c0-5.561,1.912-10.228,5.737-14.001c3.825-3.772,8.846-5.659,15.063-5.659c2.408,0,5.013,0.277,7.813,0.83
		c2.799,0.554,4.361,0.912,4.688,1.074C1291.708,571.179,1291.838,571.211,1291.969,571.211z"/>
	<path d="M1397.311,573.896l2.686,7.617h-0.717c-6.963-6.934-15.16-10.4-24.596-10.4c-9.793,0-17.706,2.914-23.74,8.74
		c-6.035,5.827-9.053,12.875-9.053,21.143c0,5.111,1.343,10.986,4.028,17.627s6.925,12.102,12.72,16.382
		c5.794,4.281,12.809,6.421,21.045,6.421c5.403,0,10.701-0.87,15.894-2.612c5.192-1.741,9.058-4.077,11.597-7.007l0.635,0.195
		l-5.029,7.715c-8.139,1.758-13.42,2.799-15.845,3.125c-2.425,0.325-5.673,0.488-9.741,0.488c-15.072,0-25.854-3.491-32.349-10.474
		s-9.741-15.34-9.741-25.073c0-6.575,1.668-12.898,5.005-18.97c3.337-6.07,8.146-10.855,14.429-14.355
		c6.282-3.499,13.46-5.249,21.533-5.249c4.036,0,7.527,0.366,10.474,1.099s5.396,1.489,7.349,2.271l3.223,1.221
		C1397.213,573.832,1397.277,573.864,1397.311,573.896z"/>
	<path d="M1495.279,606.318h-39.502v27.647c0,2.601,0.122,4.259,0.366,4.974c0.244,0.716,0.7,1.316,1.367,1.805
		c0.667,0.487,1.831,0.73,3.491,0.73v0.732h-18.604v-0.732c3.385,0.229,5.078-1.414,5.078-4.929v-57.82
		c0-3.286-0.269-5.368-0.806-6.246s-1.962-1.366-4.272-1.464v-0.732h18.604v0.732c-2.051,0.131-3.435,0.521-4.15,1.172
		c-0.717,0.651-1.074,1.986-1.074,4.004v28.125h39.502v-25.732c0-2.93-0.252-4.923-0.757-5.981
		c-0.505-1.058-1.913-1.587-4.224-1.587v-0.732h18.359v0.732c-1.451,0-2.531,0.171-3.241,0.513s-1.192,0.87-1.45,1.585
		c-0.258,0.716-0.387,2.538-0.387,5.466v55.186c0,2.831,0.129,4.596,0.387,5.295s0.709,1.276,1.354,1.732
		c0.645,0.455,1.757,0.683,3.337,0.683v0.732h-18.359v-0.732c1.985,0,3.313-0.406,3.979-1.219s1.001-3.007,1.001-6.583V606.318z"/>
	<path d="M1546.52,571.113v-0.83h45.215v9.912h-0.732c-0.977-3.678-1.799-5.843-2.466-6.494c-0.667-0.65-2.304-0.977-4.907-0.977
		h-23.73V605h22.021c2.181,0,3.564-0.203,4.15-0.61c0.586-0.406,0.895-1.001,0.928-1.782h0.732v6.787h-0.732
		c-0.163-0.943-0.545-1.578-1.147-1.904c-0.603-0.325-1.718-0.488-3.345-0.488h-22.607v22.217c0,3.354,0.309,5.771,0.926,7.251
		c0.618,1.481,1.602,2.409,2.951,2.783c1.349,0.375,3.388,0.562,6.119,0.562h12.678c4.031,0,6.606-0.138,7.728-0.412
		c1.122-0.274,2.072-0.824,2.853-1.649c0.78-0.824,1.382-2.628,1.805-5.409h0.732v9.863h-49.17v-0.732
		c1.66-0.098,2.922-0.414,3.784-0.951c0.862-0.536,1.294-1.928,1.294-4.172v-58.065c0-2.635-0.229-4.489-0.684-5.563
		C1550.458,571.65,1548.993,571.113,1546.52,571.113z"/>
	<path d="M1628.033,642.207v-0.732c2.246,0,3.703-0.423,4.37-1.269s1.001-2.294,1.001-4.343v-58.846
		c0-2.082-0.261-3.587-0.781-4.514c-0.521-0.927-2.084-1.423-4.688-1.488v-0.732h19.287v0.732c-1.791,0-3.044,0.229-3.76,0.684
		c-0.717,0.456-1.188,0.993-1.416,1.611c-0.229,0.619-0.342,2.019-0.342,4.199v50.488c0,4.33,1.04,7.382,3.121,9.155
		c2.08,1.774,5.64,2.661,10.678,2.661h8.777c4.225,0,7.322-1.041,9.289-3.125c1.967-2.083,3.063-6.006,3.291-11.768h0.732v17.285
		H1628.033z"/>
</g>
</svg>
