<?xml version="1.0" encoding="utf-8"?>
<!-- Generator: Adobe Illustrator 23.0.1, SVG Export Plug-In . SVG Version: 6.00 Build 0)  -->
<svg version="1.1" id="Layer_1" xmlns="http://www.w3.org/2000/svg" xmlns:xlink="http://www.w3.org/1999/xlink" x="0px" y="0px"
	 viewBox="0 0 1167.9 900.9" style="enable-background:new 0 0 1167.9 900.9;" xml:space="preserve">
<style type="text/css">
	.st0{display:none;clip-path:url(#SVGID_2_);}
	.st1{display:none;clip-path:url(#SVGID_4_);}
	.st2{display:none;clip-path:url(#SVGID_6_);}
	.st3{display:none;clip-path:url(#SVGID_8_);}
	.st4{display:none;clip-path:url(#SVGID_10_);}
	.st5{display:none;clip-path:url(#SVGID_12_);}
	.st6{display:none;clip-path:url(#SVGID_14_);}
	.st7{display:none;clip-path:url(#SVGID_16_);}
	.st8{display:none;clip-path:url(#SVGID_18_);}
	.st9{display:none;clip-path:url(#SVGID_20_);}
	.st10{display:none;clip-path:url(#SVGID_22_);}
	.st11{display:none;clip-path:url(#SVGID_24_);}
	.st12{display:none;clip-path:url(#SVGID_26_);}
	.st13{display:none;clip-path:url(#SVGID_28_);}
	.st14{display:none;clip-path:url(#SVGID_30_);}
	.st15{display:none;clip-path:url(#SVGID_32_);}
	.st16{display:none;clip-path:url(#SVGID_34_);}
	.st17{display:none;clip-path:url(#SVGID_36_);}
	.st18{display:none;clip-path:url(#SVGID_38_);}
	.st19{display:none;clip-path:url(#SVGID_40_);}
	.st20{display:none;clip-path:url(#SVGID_42_);}
	.st21{display:none;clip-path:url(#SVGID_44_);}
	.st22{clip-path:url(#SVGID_46_);}
</style>
<g>
	<g>
		<g>
			<defs>
				<rect id="SVGID_1_" x="144.9" y="71" width="800" height="461"/>
			</defs>
			<clipPath id="SVGID_2_">
				<use xlink:href="#SVGID_1_"  style="overflow:visible;"/>
			</clipPath>
			<path class="st0" d="M224.6,391.9h-19.2l-9.9,22.7c-0.7,1.6-1,2.6-1,3c0,0.9,0.7,1.3,2.2,1.3v0.6H187V419c1.3,0,2.4-0.3,3.3-0.9
				c0.9-0.6,1.9-2.1,2.9-4.6l23.7-55h1.2l23.3,53.2c0,0.3,0.6,1.6,1.8,3.9s3,3.5,5.5,3.5v0.6h-15.2V419c1.4,0,2.1-0.5,2.1-1.5
				c0-0.7-0.3-1.8-1-3.3c-0.1-0.1-0.2-0.3-0.3-0.5c-0.1-0.3-0.1-0.4-0.1-0.4L224.6,391.9z M206,390.2h17.7l-8.8-20.5L206,390.2z"/>
		</g>
		<g>
			<defs>
				<rect id="SVGID_3_" x="144.9" y="71" width="800" height="461"/>
			</defs>
			<clipPath id="SVGID_4_">
				<use xlink:href="#SVGID_3_"  style="overflow:visible;"/>
			</clipPath>
			<path class="st1" d="M322.8,359.4h10.3v0.6c-3.5,0.2-5.2,1.8-5.2,5c0,0.7,0.1,1.6,0.3,2.8l6.9,45.6c0.4,2.3,0.9,3.7,1.4,4.4
				c0.5,0.6,1.6,1,3.2,1.2v0.6H325V419c2,0.1,2.9-0.8,2.9-2.6c0-0.4-0.1-1.2-0.3-2.4l-6.7-44.2l-23.4,49.8h-0.4l-23.5-49.7
				l-6.6,44.5c-0.1,0.7-0.2,1.4-0.2,2.3c0,1.6,1,2.4,3,2.4v0.6h-10V419c1.5,0,2.5-0.2,2.9-0.5c0.4-0.3,0.8-0.9,1-1.6
				c0.2-0.7,0.4-1.6,0.5-2.5l7.5-48.6c-1.2-2.7-2.4-4.3-3.6-4.9c-1.2-0.5-2.4-0.8-3.5-0.8v-0.6h12.3l23,49.2L322.8,359.4z"/>
		</g>
		<g>
			<defs>
				<rect id="SVGID_5_" x="144.9" y="71" width="800" height="461"/>
			</defs>
			<clipPath id="SVGID_6_">
				<use xlink:href="#SVGID_5_"  style="overflow:visible;"/>
			</clipPath>
			<path class="st2" d="M388.5,359.4h9.8v0.6c-1.2,0.1-2.3,0.4-3.1,0.8c-0.8,0.5-1.7,1.4-2.7,2.9l-16,22.3v27.6
				c0,2.2,0.3,3.7,0.9,4.4c0.6,0.7,2,1,4.1,1v0.6H364V419c3.3,0.2,5-1,5-3.6l-0.1-1.7v-25.4l-16-24.4c-1.7-2.6-3.6-3.8-5.6-3.8v-0.6
				h15.4v0.6c-1.4,0-2.2,0.5-2.2,1.5c0,0.5,0.4,1.3,1.1,2.4l13.2,20l14.4-20.2c0.3-0.2,0.6-0.6,0.9-1.2c0.3-0.6,0.5-1,0.5-1.2
				c0-0.9-0.6-1.3-1.9-1.3h-0.2V359.4z"/>
		</g>
		<g>
			<defs>
				<rect id="SVGID_7_" x="144.9" y="71" width="800" height="461"/>
			</defs>
			<clipPath id="SVGID_8_">
				<use xlink:href="#SVGID_7_"  style="overflow:visible;"/>
			</clipPath>
			<path class="st3" d="M446.1,359.4h18.7v0.6c-2-0.1-3.5,0.2-4.3,0.8c-0.8,0.6-1.2,2.3-1.2,5v23.1l38.8-26.9
				c0.8-0.5,1.2-0.9,1.2-1.3c0-0.5-0.9-0.7-2.6-0.7v-0.6h14.1v0.6c-3.5,0.1-7,1.3-10.4,3.6l-33.8,23.2l33.7,23.6l0.1,0.1
				c0.1,0,0.1,0.1,0.1,0.1c0.1,0,0.1,0,0.2,0c4.4,3,7.9,5.2,10.3,6.4c2.4,1.2,4.7,1.9,6.9,1.9v0.6h-22.2V419c2,0,3-0.2,3-0.6
				s-0.8-1.1-2.4-2.2l-36.9-25.8v22.3c0,2.6,0.2,4.2,0.6,4.8c0.4,0.6,0.9,1,1.6,1.3c0.7,0.3,1.8,0.3,3.3,0.3v0.6h-18.8V419
				c2.5,0.1,4-0.2,4.7-1c0.6-0.8,1-2.5,1-5.1v-46.7c0-2.7-0.3-4.4-1-5.2c-0.6-0.8-2.2-1.1-4.7-1V359.4z"/>
		</g>
		<g>
			<defs>
				<rect id="SVGID_9_" x="144.9" y="71" width="800" height="461"/>
			</defs>
			<clipPath id="SVGID_10_">
				<use xlink:href="#SVGID_9_"  style="overflow:visible;"/>
			</clipPath>
			<path class="st4" d="M578,416.9c-0.2-0.6-0.3-1.9-0.3-3.8v-49c0-1.5,0.3-2.6,0.8-3.1c0.3-0.3,0.9-0.6,1.7-0.7
				c-0.4-0.2-0.8-0.5-1.1-0.9h-13.7v0.6h0.6c1.4,0,2.5,0.3,3.2,1s1,2.8,1,6.4v40.7c-5.5,5.9-11.7,8.8-18.8,8.8
				c-4.5,0-8.5-1.5-12-4.4c-3.5-3-5.3-7.9-5.3-14.8v-33.1c0-2,0.4-3.3,1.1-3.8c0.8-0.5,2-0.8,3.9-0.8v-0.6h-17.3v0.6
				c2.1,0,3.4,0.3,3.9,0.9s0.8,2,0.8,4.1v36c0,5.9,1.9,10.5,5.7,13.9s8.9,5,15.4,5c8.7,0,16.2-3.2,22.5-9.7v9.3h12.4V419
				c-1.5,0-2.6-0.2-3.3-0.6C578.7,418,578.2,417.5,578,416.9"/>
		</g>
		<g>
			<defs>
				<rect id="SVGID_11_" x="144.9" y="71" width="800" height="461"/>
			</defs>
			<clipPath id="SVGID_12_">
				<use xlink:href="#SVGID_11_"  style="overflow:visible;"/>
			</clipPath>
			<path class="st5" d="M629.1,360.3l3,7.4l-0.6,0.1c0-0.1-1.9-3.9-7.9-6.2c-2.1-0.8-4.6-1.2-7.3-1.2c-4.5,0-8,1.2-10.6,3.5
				c-2.6,2.4-3.9,5.2-3.9,8.5c0,2.2,0.6,4.1,1.8,5.8c1.2,1.6,3.8,3.2,7.7,4.6c6.7,2.1,11.3,3.7,13.8,4.7s4.8,2.8,7.1,5.3
				s3.4,5.7,3.4,9.6c0,1.6-0.2,3.2-0.6,4.7c-0.4,1.5-1.1,2.9-2,4.3c-0.9,1.4-2,2.6-3.3,3.8c-1.3,1.1-2.6,2-3.9,2.6
				c-1.3,0.6-3.4,1-6.3,1.3c-2.9,0.3-4.8,0.4-5.7,0.4h-17.4V402h0.7c0.1,5.8,1.5,9.8,4.4,12.1c2.9,2.3,7.4,3.4,13.5,3.4
				c5.6,0,9.8-1.2,12.7-3.6c2.9-2.4,4.3-5.3,4.3-8.7c0-2.1-0.5-3.8-1.5-5.3s-2.4-2.7-4.2-3.8c-1.8-1.1-5.2-2.5-10.2-4
				c-5-1.6-8.5-3-10.5-4.2s-3.7-3-5.1-5.5c-1.4-2.4-2-4.9-2-7.5c0-4.7,1.7-8.6,5.2-11.7c3.5-3.2,8-4.7,13.7-4.7
				c2.2,0,4.6,0.2,7.1,0.7C627.3,359.7,629.1,360.3,629.1,360.3"/>
		</g>
		<g>
			<defs>
				<rect id="SVGID_13_" x="144.9" y="71" width="800" height="461"/>
			</defs>
			<clipPath id="SVGID_14_">
				<use xlink:href="#SVGID_13_"  style="overflow:visible;"/>
			</clipPath>
			<path class="st6" d="M704.9,362.4l2.4,6.4h-0.7c-6.3-5.8-13.8-8.7-22.3-8.7c-8.9,0-16.1,2.4-21.6,7.3s-8.2,10.8-8.2,17.7
				c0,4.3,1.2,9.2,3.7,14.8c2.4,5.6,6.3,10.1,11.5,13.7c5.3,3.6,11.6,5.4,19.1,5.4c4.9,0,9.7-0.7,14.4-2.2s8.2-3.4,10.5-5.9l0.6,0.2
				l-4.6,6.5c-7.4,1.5-12.2,2.3-14.4,2.6c-2.2,0.3-5.1,0.4-8.8,0.4c-13.7,0-23.5-2.9-29.4-8.8c-5.9-5.8-8.8-12.8-8.8-21
				c0-5.5,1.5-10.8,4.5-15.9s7.4-9.1,13.1-12s12.2-4.4,19.5-4.4c3.7,0,6.8,0.3,9.5,0.9s4.9,1.2,6.7,1.9l2.9,1
				C704.8,362.4,704.8,362.4,704.9,362.4"/>
		</g>
		<g>
			<defs>
				<rect id="SVGID_15_" x="144.9" y="71" width="800" height="461"/>
			</defs>
			<clipPath id="SVGID_16_">
				<use xlink:href="#SVGID_15_"  style="overflow:visible;"/>
			</clipPath>
			<path class="st7" d="M772.7,389.5h-35.9v23.1c0,2.2,0.1,3.6,0.3,4.2c0.2,0.6,0.6,1.1,1.2,1.5c0.6,0.4,1.7,0.6,3.2,0.6v0.6h-16.9
				V419c3.1,0.2,4.6-1.2,4.6-4.1v-48.4c0-2.7-0.2-4.5-0.7-5.2s-1.8-1.1-3.9-1.2v-0.6h16.9v0.6c-1.9,0.1-3.1,0.4-3.8,1
				c-0.6,0.5-1,1.7-1,3.4V388h35.9v-21.5c0-2.5-0.2-4.1-0.7-5s-1.7-1.3-3.8-1.3v-0.6h16.7v0.6c-1.3,0-2.3,0.1-2.9,0.4
				c-0.6,0.3-1.1,0.7-1.3,1.3c-0.2,0.6-0.4,2.1-0.4,4.6v46.2c0,2.4,0.1,3.8,0.4,4.4c0.2,0.6,0.6,1.1,1.2,1.5c0.6,0.4,1.6,0.6,3,0.6
				v0.6h-16.7V419c1.8,0,3-0.3,3.6-1c0.6-0.7,0.9-2.5,0.9-5.5L772.7,389.5L772.7,389.5z"/>
		</g>
		<g>
			<defs>
				<rect id="SVGID_17_" x="144.9" y="71" width="800" height="461"/>
			</defs>
			<clipPath id="SVGID_18_">
				<use xlink:href="#SVGID_17_"  style="overflow:visible;"/>
			</clipPath>
			<path class="st8" d="M798.9,360.1v-0.7h41v8.3h-0.7c-0.9-3.1-1.6-4.9-2.2-5.4c-0.6-0.5-2.1-0.8-4.5-0.8H811v27h20
				c2,0,3.2-0.2,3.8-0.5c0.5-0.3,0.8-0.8,0.8-1.5h0.7v5.7h-0.7c-0.1-0.8-0.5-1.3-1-1.6c-0.5-0.3-1.6-0.4-3-0.4h-20.5v18.6
				c0,2.8,0.3,4.8,0.8,6.1c0.6,1.2,1.5,2,2.7,2.3s3.1,0.5,5.6,0.5h11.5c3.7,0,6-0.1,7-0.3s1.9-0.7,2.6-1.4c0.7-0.7,1.3-2.2,1.6-4.5
				h0.7v8.3H799V419c1.5-0.1,2.7-0.3,3.4-0.8c0.7-0.5,1.2-1.6,1.2-3.5v-48.6c0-2.2-0.2-3.8-0.6-4.7
				C802.5,360.5,801.2,360.1,798.9,360.1"/>
		</g>
		<g>
			<defs>
				<rect id="SVGID_19_" x="144.9" y="71" width="800" height="461"/>
			</defs>
			<clipPath id="SVGID_20_">
				<use xlink:href="#SVGID_19_"  style="overflow:visible;"/>
			</clipPath>
			<path class="st9" d="M855.4,419.6V419c2,0,3.4-0.4,4-1.1c0.6-0.7,0.9-1.9,0.9-3.6V365c0-1.7-0.2-3-0.7-3.8s-1.9-1.2-4.3-1.2v-0.6
				h17.5v0.6c-1.6,0-2.8,0.2-3.4,0.6c-0.7,0.4-1.1,0.8-1.3,1.3c-0.2,0.5-0.3,1.7-0.3,3.5v42.3c0,3.6,0.9,6.2,2.8,7.7
				c1.9,1.5,5.1,2.2,9.7,2.2h8c3.8,0,6.6-0.9,8.4-2.6s2.8-5,3-9.8h0.7v14.5h-45V419.6z"/>
		</g>
		<g>
			<defs>
				<rect id="SVGID_21_" x="144.9" y="71" width="800" height="461"/>
			</defs>
			<clipPath id="SVGID_22_">
				<use xlink:href="#SVGID_21_"  style="overflow:visible;"/>
			</clipPath>
			<path class="st10" d="M350.9,453.3l1.6,3h-0.3c0,0-0.4-0.3-1.2-1c-0.8-0.6-1.8-1.1-2.8-1.5c-1.1-0.3-2.3-0.5-3.6-0.5
				c-2.2,0-4,0.5-5.3,1.4c-1.3,0.9-2,2.1-2,3.4c0,0.9,0.3,1.7,0.9,2.3c0.6,0.7,1.9,1.3,3.8,1.8c3.4,0.8,5.6,1.5,6.9,1.9
				c1.2,0.4,2.4,1.1,3.6,2.1c1.1,1,1.7,2.3,1.7,3.9c0,0.7-0.1,1.3-0.3,1.9s-0.5,1.2-1,1.7s-1,1.1-1.7,1.5c-0.6,0.5-1.3,0.8-2,1
				c-0.7,0.2-1.7,0.4-3.1,0.5c-1.4,0.1-2.4,0.2-2.8,0.2h-8.7v-7h0.3c0,2.3,0.8,3.9,2.2,4.9c1.4,0.9,3.7,1.4,6.8,1.4
				c2.8,0,4.9-0.5,6.3-1.5c1.4-1,2.2-2.1,2.2-3.5c0-0.8-0.3-1.5-0.8-2.1s-1.2-1.1-2.1-1.5s-2.6-1-5.1-1.6s-4.3-1.2-5.3-1.7
				s-1.9-1.2-2.5-2.2c-0.7-1-1-2-1-3c0-1.9,0.9-3.4,2.6-4.7c1.7-1.3,4-1.9,6.8-1.9c1.1,0,2.3,0.1,3.5,0.3c1.3,0.2,2,0.3,2.1,0.4
				C350.7,453.3,350.8,453.3,350.9,453.3"/>
		</g>
		<g>
			<defs>
				<rect id="SVGID_23_" x="144.9" y="71" width="800" height="461"/>
			</defs>
			<clipPath id="SVGID_24_">
				<use xlink:href="#SVGID_23_"  style="overflow:visible;"/>
			</clipPath>
			<path class="st11" d="M379.2,466h-9.6l-4.9,9.1c-0.3,0.7-0.5,1.1-0.5,1.2c0,0.4,0.4,0.5,1.1,0.5v0.2h-4.9v-0.2
				c0.6,0,1.2-0.1,1.6-0.4c0.4-0.2,0.9-0.8,1.5-1.8l11.8-22h0.6l11.6,21.3c0,0.1,0.3,0.6,0.9,1.5s1.5,1.4,2.7,1.4v0.2h-7.5v-0.2
				c0.7,0,1-0.2,1-0.6c0-0.3-0.2-0.7-0.5-1.3c-0.1,0-0.1-0.1-0.2-0.2c0-0.1-0.1-0.2-0.1-0.2L379.2,466z M369.9,465.3h8.8l-4.4-8.2
				L369.9,465.3z"/>
		</g>
		<g>
			<defs>
				<rect id="SVGID_25_" x="144.9" y="71" width="800" height="461"/>
			</defs>
			<clipPath id="SVGID_26_">
				<use xlink:href="#SVGID_25_"  style="overflow:visible;"/>
			</clipPath>
			<path class="st12" d="M424,453h6.3v0.2c-1,0-1.6,0.2-2,0.5s-0.6,0.9-0.6,1.8v21.9l-26-20.5v17.8c0,0.6,0.1,1,0.2,1.3
				s0.3,0.5,0.5,0.6s0.8,0.2,1.7,0.3v0.2h-6.3v-0.2c1.1,0,1.8-0.1,2.1-0.4s0.4-1,0.4-2.1V458c0-1.4-0.3-2.6-0.8-3.5
				s-1.8-1.3-3.7-1.3V453h6.1l24.5,19.2v-17c0-0.9-0.2-1.5-0.7-1.7c-0.4-0.2-1-0.3-1.7-0.3V453z"/>
		</g>
		<g>
			<defs>
				<rect id="SVGID_27_" x="144.9" y="71" width="800" height="461"/>
			</defs>
			<clipPath id="SVGID_28_">
				<use xlink:href="#SVGID_27_"  style="overflow:visible;"/>
			</clipPath>
			<path class="st13" d="M455.8,453.2V453h20.6v2.8h-0.3v-0.1v-0.1c-0.3-0.8-0.7-1.3-1.2-1.5s-1.3-0.3-2.4-0.3h-10.6v10.6h9.8
				c0.8,0,1.4,0,1.7-0.1s0.5-0.3,0.5-0.7h0.3v2.3h-0.3c0-0.6-0.5-0.8-1.5-0.8h-10.5v9.6c0,0.9,0.2,1.5,0.6,1.7
				c0.4,0.3,1,0.4,1.9,0.4v0.2h-8.6v-0.2c1,0,1.6-0.1,1.9-0.4c0.3-0.3,0.4-0.7,0.4-1.2v-19.8c0-0.8-0.2-1.4-0.5-1.7
				C457.3,453.4,456.7,453.2,455.8,453.2"/>
		</g>
		<g>
			<defs>
				<rect id="SVGID_29_" x="144.9" y="71" width="800" height="461"/>
			</defs>
			<clipPath id="SVGID_30_">
				<use xlink:href="#SVGID_29_"  style="overflow:visible;"/>
			</clipPath>
			<path class="st14" d="M484.1,453.2V453h9.3c2.3,0,4,0,5.1,0.1c1.1,0.1,2.1,0.3,3.2,0.8c1.1,0.4,1.9,1,2.5,1.8
				c0.6,0.7,0.8,1.6,0.8,2.7c0,1.2-0.5,2.4-1.5,3.5s-2.4,2-4.2,2.8l2.3,2.6c0.5,0.7,1.8,2.1,4,4.3c2.2,2.2,3.8,3.6,5,4
				c1.2,0.5,2.3,0.7,3.4,0.7c1.1,0,2.3-0.3,3.8-0.9l0.1,0.3c-1.8,1.1-4.1,1.6-6.9,1.6c-1.9,0-3.5-0.4-4.9-1.2
				c-1.4-0.8-3.7-3.1-7.1-6.8c0,0,0,0,0-0.1l-3.3-3.7l-2.9,0.1h-2.6v9.2c0,0.7,0.1,1.3,0.4,1.6c0.3,0.3,0.9,0.5,1.9,0.5v0.2h-8.4
				v-0.2c1,0,1.7-0.2,2-0.5c0.3-0.3,0.4-0.9,0.4-1.8v-19.1c0-0.6-0.1-1.1-0.3-1.5C485.9,453.4,485.2,453.2,484.1,453.2 M490.2,453.6
				v11.3h3.4c2.7,0,4.7-0.5,6-1.4c1.3-0.9,2-2.2,2-3.7s-0.6-2.9-1.9-4.2c-1.3-1.3-3.5-2-6.8-2L490.2,453.6L490.2,453.6z"/>
		</g>
		<g>
			<defs>
				<rect id="SVGID_31_" x="144.9" y="71" width="800" height="461"/>
			</defs>
			<clipPath id="SVGID_32_">
				<use xlink:href="#SVGID_31_"  style="overflow:visible;"/>
			</clipPath>
			<path class="st15" d="M541.3,466h-9.6l-4.9,9.1c-0.3,0.7-0.5,1.1-0.5,1.2c0,0.4,0.4,0.5,1.1,0.5v0.2h-4.9v-0.2
				c0.6,0,1.2-0.1,1.6-0.4c0.4-0.2,0.9-0.8,1.5-1.8l11.8-22h0.6l11.6,21.3c0,0.1,0.3,0.6,0.9,1.5c0.6,0.9,1.5,1.4,2.7,1.4v0.2h-7.6
				v-0.2c0.7,0,1-0.2,1-0.6c0-0.3-0.2-0.7-0.5-1.3c-0.1,0-0.1-0.1-0.2-0.2c0-0.1-0.1-0.2-0.1-0.2L541.3,466z M532.1,465.3h8.8
				l-4.4-8.2L532.1,465.3z"/>
		</g>
		<g>
			<defs>
				<rect id="SVGID_33_" x="144.9" y="71" width="800" height="461"/>
			</defs>
			<clipPath id="SVGID_34_">
				<use xlink:href="#SVGID_33_"  style="overflow:visible;"/>
			</clipPath>
			<path class="st16" d="M586.2,453h6.3v0.2c-1,0-1.6,0.2-2,0.5c-0.4,0.3-0.6,0.9-0.6,1.8v21.9l-26-20.5v17.8c0,0.6,0.1,1,0.2,1.3
				c0.1,0.3,0.3,0.5,0.5,0.6c0.2,0.1,0.8,0.2,1.7,0.3v0.2H560v-0.2c1.1,0,1.8-0.1,2.1-0.4c0.3-0.3,0.4-1,0.4-2.1V458
				c0-1.4-0.3-2.6-0.8-3.5s-1.8-1.3-3.7-1.3V453h6.1l24.5,19.2v-17c0-0.9-0.2-1.5-0.7-1.7c-0.4-0.2-1-0.3-1.7-0.3V453z"/>
		</g>
		<g>
			<defs>
				<rect id="SVGID_35_" x="144.9" y="71" width="800" height="461"/>
			</defs>
			<clipPath id="SVGID_36_">
				<use xlink:href="#SVGID_35_"  style="overflow:visible;"/>
			</clipPath>
			<path class="st17" d="M627.2,454.2l1.2,2.6h-0.3c-3.2-2.3-6.9-3.5-11.2-3.5c-4.4,0-8,1-10.8,2.9c-2.7,2-4.1,4.3-4.1,7.1
				c0,1.7,0.6,3.7,1.8,5.9c1.2,2.2,3.1,4.1,5.8,5.5c2.6,1.4,5.8,2.2,9.6,2.2c2.5,0,4.9-0.3,7.2-0.9c2.4-0.6,4.1-1.4,5.3-2.3l0.3,0.1
				l-2.3,2.6c-3.7,0.6-6.1,0.9-7.2,1c-1.1,0.1-2.6,0.2-4.4,0.2c-6.8,0-11.7-1.2-14.7-3.5c-2.9-2.3-4.4-5.1-4.4-8.4
				c0-2.2,0.8-4.3,2.3-6.4c1.5-2,3.7-3.6,6.5-4.8s6.1-1.8,9.8-1.8c1.8,0,3.4,0.1,4.8,0.4c1.3,0.2,2.4,0.5,3.3,0.8L627.2,454.2
				L627.2,454.2"/>
		</g>
		<g>
			<defs>
				<rect id="SVGID_37_" x="144.9" y="71" width="800" height="461"/>
			</defs>
			<clipPath id="SVGID_38_">
				<use xlink:href="#SVGID_37_"  style="overflow:visible;"/>
			</clipPath>
			<path class="st18" d="M647.6,453v0.2c-0.4,0-0.9,0-1.4,0.1s-0.8,0.3-0.9,0.6c-0.1,0.3-0.1,0.8-0.1,1.8v18.5c0,1,0.1,1.6,0.2,1.8
				c0.1,0.2,0.3,0.4,0.6,0.6c0.3,0.1,0.9,0.2,1.7,0.2v0.2H639v-0.2c1.1,0,1.8-0.2,2-0.5c0.3-0.3,0.4-1,0.4-2.1v-18.3
				c0-1.1-0.1-1.9-0.4-2.2c-0.3-0.4-1-0.5-2-0.5V453H647.6z"/>
		</g>
		<g>
			<defs>
				<rect id="SVGID_39_" x="144.9" y="71" width="800" height="461"/>
			</defs>
			<clipPath id="SVGID_40_">
				<use xlink:href="#SVGID_39_"  style="overflow:visible;"/>
			</clipPath>
			<path class="st19" d="M672.9,453.3l1.6,3h-0.3c0,0-0.4-0.3-1.2-1c-0.8-0.6-1.8-1.1-2.8-1.5c-1.1-0.3-2.3-0.5-3.6-0.5
				c-2.2,0-4,0.5-5.3,1.4s-2,2.1-2,3.4c0,0.9,0.3,1.7,0.9,2.3c0.6,0.7,1.9,1.3,3.8,1.8c3.4,0.8,5.6,1.5,6.9,1.9
				c1.2,0.4,2.4,1.1,3.6,2.1s1.7,2.3,1.7,3.9c0,0.7-0.1,1.3-0.3,1.9s-0.5,1.2-1,1.7s-1,1.1-1.7,1.5c-0.6,0.5-1.3,0.8-2,1
				s-1.7,0.4-3.1,0.5c-1.4,0.1-2.4,0.2-2.8,0.2h-8.7v-7h0.3c0,2.3,0.8,3.9,2.2,4.9c1.4,0.9,3.7,1.4,6.8,1.4c2.8,0,4.9-0.5,6.3-1.5
				c1.4-1,2.2-2.1,2.2-3.5c0-0.8-0.3-1.5-0.8-2.1s-1.2-1.1-2.1-1.5c-0.9-0.4-2.6-1-5.1-1.6s-4.3-1.2-5.3-1.7s-1.9-1.2-2.5-2.2
				c-0.7-1-1-2-1-3c0-1.9,0.9-3.4,2.6-4.7c1.7-1.3,4-1.9,6.8-1.9c1.1,0,2.3,0.1,3.5,0.3c1.3,0.2,2,0.3,2.1,0.4
				C672.8,453.3,672.8,453.3,672.9,453.3"/>
		</g>
		<g>
			<defs>
				<rect id="SVGID_41_" x="144.9" y="71" width="800" height="461"/>
			</defs>
			<clipPath id="SVGID_42_">
				<use xlink:href="#SVGID_41_"  style="overflow:visible;"/>
			</clipPath>
			<path class="st20" d="M711.2,454.2l1.2,2.6h-0.3c-3.2-2.3-6.9-3.5-11.2-3.5c-4.4,0-8,1-10.8,2.9c-2.7,2-4.1,4.3-4.1,7.1
				c0,1.7,0.6,3.7,1.8,5.9c1.2,2.2,3.1,4.1,5.8,5.5c2.6,1.4,5.8,2.2,9.6,2.2c2.5,0,4.9-0.3,7.2-0.9c2.4-0.6,4.1-1.4,5.3-2.3l0.3,0.1
				l-2.3,2.6c-3.7,0.6-6.1,0.9-7.2,1c-1.1,0.1-2.6,0.2-4.4,0.2c-6.8,0-11.7-1.2-14.7-3.5c-2.9-2.3-4.4-5.1-4.4-8.4
				c0-2.2,0.8-4.3,2.3-6.4c1.5-2,3.7-3.6,6.5-4.8s6.1-1.8,9.8-1.8c1.8,0,3.4,0.1,4.8,0.4c1.3,0.2,2.4,0.5,3.3,0.8L711.2,454.2
				C711.1,454.2,711.2,454.2,711.2,454.2"/>
		</g>
		<g>
			<defs>
				<rect id="SVGID_43_" x="144.9" y="71" width="800" height="461"/>
			</defs>
			<clipPath id="SVGID_44_">
				<use xlink:href="#SVGID_43_"  style="overflow:visible;"/>
			</clipPath>
			<path class="st21" d="M739.7,452.6c4.6,0,8.3,1,11.2,3.1c2.9,2.1,4.4,4.6,4.4,7.7c0,4-1.7,7.3-5.1,10c-3.4,2.7-7.8,4.1-13.4,4.1
				c-4.5,0-8.2-1.1-11.1-3.3c-2.9-2.2-4.3-4.8-4.3-7.8c0-2.1,0.7-4.2,2.1-6.3c1.4-2.2,3.5-3.9,6.3-5.3
				C732.6,453.3,735.9,452.6,739.7,452.6 M739.6,476.2c2.2,0,4.5-0.4,6.6-1.3c2.1-0.9,3.9-2.1,5.2-3.7s1.9-3.2,1.9-4.8
				c0-2.3-0.8-4.5-2.5-6.4s-3.9-3.4-6.6-4.5s-5.2-1.6-7.5-1.6c-3.2,0-6.2,0.9-8.8,2.7c-2.6,1.8-4,4-4,6.7c0,3.4,1.6,6.4,4.8,9
				C732,474.9,735.6,476.2,739.6,476.2"/>
		</g>
		<g>
			<defs>
				<rect id="SVGID_45_" x="-475.2" y="-65.6" width="2118.4" height="1220.7"/>
			</defs>
			<clipPath id="SVGID_46_">
				<use xlink:href="#SVGID_45_"  style="overflow:visible;"/>
			</clipPath>
			<path class="st22" d="M633.5,680.4c-16.2-9.8-27.3-25.2-33.4-45.8c-5.6-19.6-5.3-42.1,0.8-64.6c4.5-16.9,12.4-33.4,23-48.7
				c11.4-16.7,26-31.5,43.2-44.5c5.8-4.5,12.2-8.7,18.8-12.7c0.3-0.3,0.5-0.8,0.5-1.1c-8.5-28.3-16.9-60.4-25.4-97.2
				c0-0.3-0.5-0.8-1.1-0.8c-10.3-1.9-20.9-3.7-31.5-5.6c-19.6-3.4-40-7.1-60.9-10.6l0,0c-0.3,0-0.5,0.3-0.5,0.5
				c-8.5,47.9-20.7,92.4-35.5,131.9c-15.6,40.5-34.4,76.3-56.1,105.9c-11.4,15.4-24.4,29.1-38.9,40.2c-13.8,10.6-28.9,19.6-44.8,26
				c-23.3,9.5-47.7,14.3-72.8,14.3c-26.7,0-52.7-5.6-75.2-16.4c-73.6-32-101.4-109.1-69.6-191.7c32.6-84.2,124.5-128.2,270.6-127.4
				c39.2,0.3,77.9,4.2,116.8,10.1l0,0c0.3,0,0.5-0.3,0.5-0.5c11.4-66.5,26.7-170.5,15.1-235.4c-4.8-27-14.3-49.8-27.8-65.9
				c-14.6-18.5-33.6-28.3-56.7-29.1c-1.9,0-3.7,0-5.3,0c-15.1,0-29.4,2.6-42.4,7.4c-14,5.3-26.2,13-36.3,23.3
				c-8.7,8.7-15.6,18.8-19.9,30.2c-0.5,1.6-1.1,2.4,0.5,0.3C401.2,56.5,420.6,47,441.5,47c38.9,0,69.4,32.3,65.4,68.8
				c-3.2,31.5-30.7,55.3-64.1,55.3c-33.6,0-61.4-23.8-65.4-56.1c-3.4-28.3,6.4-56.1,26.7-76.8c10.6-10.6,23.6-19.1,38.4-24.6
				c11.7-4.5,26.7-7.4,40.5-8.2c2.9-0.3,6.1-0.3,9-0.3c75.5,0,175,46.6,211.6,133.2c16.2,38.1,29.1,90.3,43.2,145.4
				c6.9,27.3,14,55.6,22,83.9c0,0.3,0.5,0.5,0.8,0.5c10.1-0.5,19.6-1.6,28.9-2.9c29.7-4.5,53.8-13.8,69.9-26.7
				c15.6-12.7,23.8-28.9,24.9-49.5c0.3-4.5,5.8-3.7,5.8,0c-0.8,23-8.7,39.2-26.7,53.8c-17.2,13.8-41.6,23.3-72.8,28.1
				c-9,1.3-18.5,2.4-28.6,2.9c-0.3,0-0.3,0-0.3,0v0.3c5.3,19.1,10.6,36.3,15.9,52.7c0,0.3,0.5,0.5,0.8,0.5
				c10.3-1.9,20.9-3.2,31.5-4.2c9.3-0.8,18.3-1.3,27-1.3c63.6,0,101.2,23.6,121.3,43.2c15.6,15.1,27,33.9,33.6,54.5
				c5.6,17.7,7.1,36.5,4.8,54c-9,65.1-76.8,95.1-147,89.2C794.5,657.3,755,627.4,723,560.1c-12.2-25.4-23.3-55.1-34.4-90.3
				c-0.3-0.5-0.3-0.5-1.1-0.3c-5.8,3.7-11.4,7.4-16.7,11.4c-16.7,12.7-30.7,27.3-41.8,43.2c-10.3,14.8-17.7,30.7-22.2,47.1
				c-5.8,21.7-6.1,43.2-0.8,62c5.6,19.3,16.2,34.2,31,42.6C639.8,677.5,637.4,682.7,633.5,680.4 M445.7,336.9
				c-42.9,0-76.8,5.3-112.8,31.5c-35.2,25.7-60.6,76-67.8,134.8c-6.6,55.1,4,106.4,27.8,133.7c14.8,16.9,34.4,23,47.7,23
				c7.7,0,28.6-4,48.7-12.2c15.4-6.4,29.9-14.8,43.4-25.2c14-11.1,26.7-24.4,37.9-39.2c21.4-29.4,40-64.6,55.3-104.6
				c15.1-39.2,26.7-83.1,35.2-130.8c0-0.3-0.3-0.5-0.5-0.5C515.9,340.1,479.4,336.9,445.7,336.9 M845.8,427
				c-8.5,0-17.2,0.5-26.2,1.3c-10.3,1.1-20.7,2.4-30.5,4c-0.3,0-0.3,0-0.3,0.3v0.3c40,118.9,64.6,152,88.4,177.7
				c23.3,25.2,44,30.5,57.5,30.5c33.4,0,59-33.9,64.9-65.4c3.2-17.2,1.6-36.3-4.2-54.8c-6.1-19.9-17.2-37.9-32.3-52.4
				C935.1,441.3,894.6,427,845.8,427 M549.5,31.1c1.6,1.6,3.2,3.4,4.8,5.3c13.8,16.9,23.8,40.5,28.9,68.3
				c9.8,55.6,1.9,130.8-13.2,226.7c-0.5,3.4-1.1,7.1-1.9,10.6c0,0.3,0.3,0.5,0.5,0.5c21.2,3.4,41.6,7.1,61.2,10.6
				c9.8,1.9,19.6,3.7,28.9,5.3c0.5,0,0.8,0.3,0.5-0.5c-8.2-36.5-15.1-72-22-106.4c-12.4-62.5-23.3-116.2-35.5-148.8
				c-12.7-33.9-29.1-58-50.8-73.1C535.8,19.2,545.6,27.1,549.5,31.1"/>
		</g>
		<g>
			<path d="M46.2,853.1c-4.4,0-8.6-0.8-12.3-2.3c-3.8-1.5-7.1-3.6-9.9-6.2c-2.8-2.6-5-5.7-6.6-9.3c-1.6-3.5-2.3-7.3-2.3-11.4
				c0-4.1,1-7.9,2.9-11.3c1.9-3.5,4.6-6.5,8.1-9c3.5-2.5,7.6-4.5,12.4-5.8c4.8-1.4,10.1-2.1,15.8-2.1c4.8,0,9.7,0.4,14.6,1.3
				c4.9,0.8,9.3,2,13.1,3.6v-8.5c0-8.3-2.3-14.9-7-19.7c-4.7-4.9-11.2-7.3-19.4-7.3c-4.8,0-9.7,1-14.8,2.9c-5,1.9-10.1,4.7-15.3,8.3
				l-4.3-8.1c12.1-8.2,23.9-12.2,35.3-12.2c11.8,0,21,3.3,27.7,9.9c6.7,6.6,10.1,15.7,10.1,27.4v42.3c0,3.4,1.5,5,4.5,5v10.8
				c-2,0.4-3.6,0.5-4.7,0.5c-3.1,0-5.6-0.8-7.3-2.3c-1.7-1.6-2.7-3.7-2.8-6.5l-0.4-7.4c-4.3,5.6-9.8,10-16.3,13
				C60.8,851.6,53.7,853.1,46.2,853.1z M49,843.7c6.4,0,12.2-1.2,17.5-3.6c5.3-2.4,9.4-5.6,12.2-9.5c1.1-1.1,1.9-2.3,2.4-3.5
				s0.8-2.4,0.8-3.5v-15.3c-4.1-1.6-8.3-2.8-12.7-3.6c-4.4-0.8-8.9-1.3-13.4-1.3c-8.6,0-15.7,1.8-21.1,5.4
				c-5.4,3.6-8.1,8.3-8.1,14.2c0,2.9,0.6,5.6,1.7,8.1c1.1,2.5,2.7,4.7,4.7,6.6c2,1.9,4.3,3.3,7.1,4.4C43,843.2,45.9,843.7,49,843.7z
				"/>
			<path d="M269.2,851.3h-12.2v-52.4c0-10.9-1.7-19-5.2-24.1c-3.5-5.2-8.6-7.7-15.5-7.7c-3.6,0-7,0.7-10.2,2
				c-3.2,1.3-6.1,3.2-8.8,5.6c-2.7,2.4-5.1,5.3-7.1,8.5c-2,3.3-3.6,6.9-4.7,10.9v57.2h-12.2v-52.4c0-11.2-1.7-19.3-5-24.3
				c-3.4-5-8.5-7.6-15.5-7.6c-7.1,0-13.4,2.5-18.9,7.4c-5.5,4.9-9.5,11.4-11.9,19.4v57.4h-12.2v-93.8h11.2v21.2
				c3.8-7.2,8.9-12.8,15.1-16.8c6.2-4,13.1-6,20.7-6c7.9,0,14.2,2.2,19,6.7c4.7,4.4,7.7,10.3,8.7,17.5c8.8-16.1,20.8-24.1,36.2-24.1
				c5.3,0,9.7,1,13.4,2.9c3.7,1.9,6.6,4.7,8.8,8.2c2.2,3.5,3.8,7.8,4.9,12.8c1,5,1.5,10.5,1.5,16.6V851.3z"/>
			<path d="M309.5,880.1c1,0.1,1.9,0.2,2.8,0.3c0.9,0.1,1.8,0.1,2.6,0.1c2.2,0,3.9-0.3,5.1-0.9c1.3-0.6,2.5-1.9,3.7-4
				c1.2-2,2.5-5,4-8.8c1.5-3.8,3.6-9,6.4-15.5l-40.9-93.8h12.6l34.7,82.4l32.2-82.4h11.7l-48.6,121c-1.3,3.5-3.5,6.5-6.6,9.1
				c-3.1,2.6-7.2,3.9-12.5,3.9c-1.2,0-2.3,0-3.4-0.1c-1.1-0.1-2.4-0.2-4-0.5V880.1z"/>
			<path d="M532.5,851.3L498,803.2l-20.2,18.7v29.3h-12.2V719.9h12.2v89.3l52.7-51.5h13.9L506.1,796l39.8,55.3H532.5z"/>
			<path d="M599.3,853.1c-10.2,0-17.8-3.4-22.8-10.2c-5-6.8-7.5-16.9-7.5-30.3v-55.1h12.2v52.9c0,21.2,7.3,31.9,21.8,31.9
				c3.6,0,7.1-0.6,10.6-1.8c3.5-1.2,6.7-2.9,9.6-5.2c2.9-2.3,5.6-5,7.9-8.1c2.3-3.1,4.2-6.7,5.7-10.6v-59h12.2v77.9
				c0,3.4,1.4,5,4.3,5v10.8c-1.4,0.2-2.6,0.4-3.5,0.4c-0.9,0-1.5,0-1.9,0c-2.9-0.1-5.2-1.1-7-3.1c-1.8-1.9-2.7-4.5-2.7-7.7V830
				c-4.1,7.3-9.6,13-16.7,17C614.7,851.1,607.2,853.1,599.3,853.1z"/>
			<path d="M717,853.1c-7.3,0-14.5-1.2-21.4-3.6c-7-2.4-13-5.9-18-10.4l5.6-8.3c5.3,4.3,10.6,7.6,16.1,9.7
				c5.5,2.2,11.3,3.2,17.5,3.2c7.6,0,13.6-1.5,18.1-4.6c4.5-3.1,6.8-7.4,6.8-13c0-2.6-0.6-4.8-1.8-6.6c-1.2-1.7-3-3.3-5.3-4.6
				c-2.3-1.3-5.3-2.5-8.8-3.5c-3.5-1-7.6-2.1-12.3-3.1c-5.4-1.3-10.1-2.6-14-4c-4-1.3-7.2-2.8-9.8-4.5c-2.6-1.7-4.5-3.7-5.8-6.2
				c-1.3-2.5-1.9-5.5-1.9-9.3c0-4.7,0.9-8.8,2.8-12.4c1.9-3.6,4.4-6.6,7.6-8.9c3.2-2.3,6.9-4.1,11.2-5.3c4.3-1.2,8.8-1.8,13.6-1.8
				c7.2,0,13.7,1.2,19.6,3.5c5.9,2.3,10.6,5.4,14.2,9.3l-5.9,7.2c-3.5-3.6-7.7-6.3-12.7-8.1c-5-1.8-10.2-2.7-15.6-2.7
				c-3.2,0-6.2,0.3-9,1c-2.8,0.7-5.2,1.7-7.3,3.2c-2.1,1.4-3.8,3.3-5,5.5c-1.2,2.2-1.8,4.8-1.8,7.8c0,2.5,0.4,4.6,1.3,6.1
				c0.8,1.6,2.2,2.9,4.1,4c1.9,1.1,4.3,2.2,7.3,3.1c2.9,0.9,6.5,1.8,10.7,2.8c6,1.4,11.3,2.9,15.8,4.3c4.6,1.4,8.4,3.1,11.4,5
				c3.1,1.9,5.4,4.3,6.9,7c1.6,2.8,2.3,6.1,2.3,10.1c0,8.6-3.3,15.5-9.9,20.5C737,850.6,728.2,853.1,717,853.1z"/>
			<path d="M776.1,804.1c0-6.6,1.1-12.8,3.4-18.7c2.3-5.9,5.5-11,9.6-15.4c4.1-4.4,9.1-7.8,14.8-10.4c5.8-2.5,12.1-3.8,19.1-3.8
				c8.9,0,16.6,2,23.2,6c6.6,4,11.6,9.5,14.9,16.3l-11.9,3.8c-2.6-4.8-6.3-8.5-11.1-11.3c-4.7-2.7-10-4-15.8-4
				c-4.8,0-9.3,1-13.4,2.9c-4.1,1.9-7.7,4.5-10.8,7.8c-3.1,3.3-5.5,7.2-7.2,11.8c-1.7,4.6-2.6,9.5-2.6,14.9c0,5.3,0.9,10.3,2.7,14.9
				c1.8,4.7,4.3,8.7,7.4,12.1c3.1,3.4,6.8,6.1,10.9,8.1c4.1,2,8.5,3,13.2,3c3,0,6-0.4,8.9-1.3c2.9-0.8,5.7-2,8.2-3.5
				c2.5-1.5,4.7-3.2,6.5-5.1c1.8-1.9,3.1-4,3.8-6.1l12.1,3.6c-1.3,3.4-3.2,6.5-5.8,9.3c-2.5,2.8-5.5,5.3-8.9,7.4
				c-3.4,2.1-7.2,3.7-11.3,4.9c-4.1,1.1-8.4,1.7-12.9,1.7c-6.8,0-13.1-1.3-18.9-3.9s-10.7-6.1-14.9-10.6c-4.2-4.5-7.5-9.7-9.8-15.6
				C777.2,817.1,776.1,810.8,776.1,804.1z"/>
			<path d="M969.2,851.3h-12.2v-52.4c0-10.7-1.8-18.7-5.5-23.9c-3.7-5.3-9-7.9-16.1-7.9c-3.5,0-6.9,0.7-10.4,2.1
				c-3.4,1.4-6.6,3.3-9.6,5.7c-3,2.4-5.6,5.2-7.8,8.5c-2.2,3.2-3.9,6.8-4.9,10.6v57.4h-12.2V719.9h12.2v58.9
				c3.7-7.1,8.9-12.7,15.5-16.7c6.6-4.1,13.7-6.1,21.4-6.1c5.4,0,10,1,13.7,3c3.7,2,6.8,4.7,9.2,8.3c2.4,3.5,4.1,7.8,5.2,12.8
				c1.1,5,1.6,10.5,1.6,16.5V851.3z"/>
			<path d="M1044.8,853.1c-6.8,0-13.1-1.3-18.8-3.9c-5.7-2.6-10.7-6.1-14.9-10.6c-4.2-4.5-7.5-9.7-9.8-15.6
				c-2.3-5.9-3.5-12.2-3.5-18.9c0-6.6,1.2-12.8,3.5-18.6c2.3-5.8,5.6-10.9,9.7-15.3c4.1-4.4,9.1-7.9,14.9-10.4
				c5.8-2.6,12-3.9,18.7-3.9c6.8,0,13.1,1.3,18.8,3.9c5.7,2.6,10.6,6.1,14.7,10.5c4.1,4.4,7.3,9.5,9.5,15.3
				c2.3,5.8,3.4,11.9,3.4,18.4c0,1,0,1.9,0,2.9c0,1-0.1,1.6-0.2,2h-80.3c0.4,5,1.5,9.7,3.5,14c2,4.3,4.5,8,7.6,11.1
				c3.1,3.1,6.7,5.6,10.7,7.3c4,1.7,8.3,2.6,12.9,2.6c3,0,6-0.4,9-1.3c3-0.8,5.8-2,8.3-3.4c2.5-1.4,4.8-3.2,6.8-5.3
				c2-2.1,3.6-4.4,4.7-6.9l10.6,2.9c-1.4,3.5-3.5,6.6-6.1,9.4c-2.6,2.8-5.7,5.3-9.2,7.4c-3.5,2.1-7.3,3.7-11.5,4.9
				C1053.7,852.5,1049.3,853.1,1044.8,853.1z M1079.3,799.4c-0.4-5-1.5-9.6-3.5-13.8c-2-4.1-4.5-7.7-7.6-10.7c-3.1-3-6.6-5.3-10.6-7
				c-4-1.7-8.3-2.5-12.9-2.5c-4.6,0-8.9,0.8-13,2.5c-4.1,1.7-7.6,4-10.7,7c-3.1,3-5.5,6.6-7.4,10.8c-1.9,4.2-3,8.8-3.3,13.7H1079.3z
				"/>
			<path d="M1119.5,719.9h12.2V830c0,3.5,1,6.2,2.9,8.2c1.9,2,4.6,3,8.1,3c1.3,0,2.9-0.2,4.7-0.5c1.8-0.4,3.5-0.8,5-1.4l2.2,9.9
				c-2.3,1-5.1,1.7-8.4,2.3c-3.3,0.6-6.2,0.9-8.5,0.9c-5.6,0-10.1-1.6-13.3-4.8c-3.2-3.2-4.9-7.6-4.9-13.4V719.9z"/>
		</g>
	</g>
</g>
</svg>
