<?xml version="1.0" encoding="utf-8"?>
<!-- Generator: Adobe Illustrator 16.0.0, SVG Export Plug-In . SVG Version: 6.00 Build 0)  -->
<!DOCTYPE svg PUBLIC "-//W3C//DTD SVG 1.1//EN" "http://www.w3.org/Graphics/SVG/1.1/DTD/svg11.dtd">
<svg version="1.1" id="Layer_1" xmlns="http://www.w3.org/2000/svg" xmlns:xlink="http://www.w3.org/1999/xlink" x="0px" y="0px"
	 width="331px" height="269px" viewBox="0 0 331 269" enable-background="new 0 0 331 269" xml:space="preserve">
<g>
	<defs>
		<rect id="SVGID_1_" x="-234.5" y="-19" width="800" height="461"/>
	</defs>
	<clipPath id="SVGID_2_">
		<use xlink:href="#SVGID_1_"  overflow="visible"/>
	</clipPath>
	<path display="none" clip-path="url(#SVGID_2_)" d="M-154.8,301.9H-174l-9.9,22.7c-0.7,1.6-1,2.6-1,3c0,0.9,0.7,1.3,2.2,1.3v0.6
		h-9.7V329c1.3,0,2.4-0.3,3.3-0.9c0.9-0.6,1.9-2.1,2.9-4.6l23.7-55h1.2l23.3,53.2c0,0.3,0.6,1.6,1.8,3.9c1.2,2.3,3,3.5,5.5,3.5v0.6
		h-15.2V329c1.4,0,2.1-0.5,2.1-1.5c0-0.7-0.3-1.8-1-3.3c-0.1-0.1-0.2-0.3-0.3-0.5c-0.1-0.3-0.1-0.4-0.1-0.4L-154.8,301.9z
		 M-173.4,300.2h17.7l-8.8-20.5L-173.4,300.2z"/>
	<path display="none" clip-path="url(#SVGID_2_)" d="M-56.6,269.4h10.3v0.6c-3.5,0.2-5.2,1.8-5.2,5c0,0.7,0.1,1.6,0.3,2.8l6.9,45.6
		c0.4,2.3,0.9,3.7,1.4,4.4c0.5,0.6,1.6,1,3.2,1.2v0.6h-14.7V329c2,0.1,2.9-0.8,2.9-2.6c0-0.4-0.1-1.2-0.3-2.4l-6.7-44.2l-23.4,49.8
		h-0.4l-23.5-49.7l-6.6,44.5c-0.1,0.7-0.2,1.4-0.2,2.3c0,1.6,1,2.4,3,2.4v0.6h-10V329c1.5,0,2.5-0.2,2.9-0.5c0.4-0.3,0.8-0.9,1-1.6
		c0.2-0.7,0.4-1.6,0.5-2.5l7.5-48.6c-1.2-2.7-2.4-4.3-3.6-4.9c-1.2-0.5-2.4-0.8-3.5-0.8v-0.6h12.3l23,49.2L-56.6,269.4z"/>
	<path display="none" clip-path="url(#SVGID_2_)" d="M9.1,269.4h9.8v0.6c-1.2,0.1-2.3,0.4-3.1,0.8c-0.8,0.5-1.7,1.4-2.7,2.9
		l-16,22.3v27.6c0,2.2,0.3,3.7,0.9,4.4c0.6,0.7,2,1,4.1,1v0.6h-17.5V329c3.3,0.2,5-1,5-3.6l-0.1-1.7v-25.4l-16-24.4
		c-1.7-2.6-3.6-3.8-5.6-3.8v-0.6h15.4v0.6c-1.4,0-2.2,0.5-2.2,1.5c0,0.5,0.4,1.3,1.1,2.4l13.2,20l14.4-20.2c0.3-0.2,0.6-0.6,0.9-1.2
		c0.3-0.6,0.5-1,0.5-1.2c0-0.9-0.6-1.3-1.9-1.3H9.1V269.4z"/>
	<path display="none" clip-path="url(#SVGID_2_)" d="M66.7,269.4h18.7v0.6c-2-0.1-3.5,0.2-4.3,0.8c-0.8,0.6-1.2,2.3-1.2,5v23.1
		l38.8-26.9c0.8-0.5,1.2-0.9,1.2-1.3c0-0.5-0.9-0.7-2.6-0.7v-0.6h14.1v0.6c-3.5,0.1-7,1.3-10.4,3.6l-33.8,23.2l33.7,23.6
		c0,0,0.1,0.1,0.1,0.1c0.1,0,0.1,0.1,0.1,0.1c0.1,0,0.1,0,0.2,0c4.4,3,7.9,5.2,10.3,6.4c2.4,1.2,4.7,1.9,6.9,1.9v0.6h-22.2V329
		c2,0,3-0.2,3-0.6c0-0.4-0.8-1.1-2.4-2.2l-36.9-25.8v22.3c0,2.6,0.2,4.2,0.6,4.8c0.4,0.6,0.9,1,1.6,1.3c0.7,0.3,1.8,0.3,3.3,0.3v0.6
		H66.7V329c2.5,0.1,4-0.2,4.7-1c0.6-0.8,1-2.5,1-5.1v-46.7c0-2.7-0.3-4.4-1-5.2c-0.6-0.8-2.2-1.1-4.7-1V269.4z"/>
	<path display="none" clip-path="url(#SVGID_2_)" d="M198.6,326.9c-0.2-0.6-0.3-1.9-0.3-3.8v-49c0-1.5,0.3-2.6,0.8-3.1
		c0.3-0.3,0.9-0.6,1.7-0.7c-0.4-0.2-0.8-0.5-1.1-0.9H186v0.6h0.6c1.4,0,2.5,0.3,3.2,1c0.7,0.7,1,2.8,1,6.4v40.7
		c-5.5,5.9-11.7,8.8-18.8,8.8c-4.5,0-8.5-1.5-12-4.4c-3.5-3-5.3-7.9-5.3-14.8v-33.1c0-2,0.4-3.3,1.1-3.8c0.8-0.5,2-0.8,3.9-0.8v-0.6
		h-17.3v0.6c2.1,0,3.4,0.3,3.9,0.9s0.8,2,0.8,4.1v36c0,5.9,1.9,10.5,5.7,13.9c3.8,3.4,8.9,5,15.4,5c8.7,0,16.2-3.2,22.5-9.7v9.3
		h12.4V329c-1.5,0-2.6-0.2-3.3-0.6C199.3,328,198.8,327.5,198.6,326.9"/>
	<path display="none" clip-path="url(#SVGID_2_)" d="M249.7,270.3l3,7.4l-0.6,0.1c0-0.1-1.9-3.9-7.9-6.2c-2.1-0.8-4.6-1.2-7.3-1.2
		c-4.5,0-8,1.2-10.6,3.5c-2.6,2.4-3.9,5.2-3.9,8.5c0,2.2,0.6,4.1,1.8,5.8c1.2,1.6,3.8,3.2,7.7,4.6c6.7,2.1,11.3,3.7,13.8,4.7
		c2.5,1,4.8,2.8,7.1,5.3c2.3,2.5,3.4,5.7,3.4,9.6c0,1.6-0.2,3.2-0.6,4.7s-1.1,2.9-2,4.3c-0.9,1.4-2,2.6-3.3,3.8
		c-1.3,1.1-2.6,2-3.9,2.6c-1.3,0.6-3.4,1-6.3,1.3c-2.9,0.3-4.8,0.4-5.7,0.4H217v-17.5h0.7c0.1,5.8,1.5,9.8,4.4,12.1
		c2.9,2.3,7.4,3.4,13.5,3.4c5.6,0,9.8-1.2,12.7-3.6c2.9-2.4,4.3-5.3,4.3-8.7c0-2.1-0.5-3.8-1.5-5.3c-1-1.5-2.4-2.7-4.2-3.8
		c-1.8-1.1-5.2-2.5-10.2-4c-5-1.6-8.5-3-10.5-4.2c-2-1.2-3.7-3-5.1-5.5c-1.4-2.4-2-4.9-2-7.5c0-4.7,1.7-8.6,5.2-11.7
		c3.5-3.2,8-4.7,13.7-4.7c2.2,0,4.6,0.2,7.1,0.7C247.9,269.7,249.7,270.3,249.7,270.3"/>
	<path display="none" clip-path="url(#SVGID_2_)" d="M325.5,272.4l2.4,6.4h-0.7c-6.3-5.8-13.8-8.7-22.3-8.7
		c-8.9,0-16.1,2.4-21.6,7.3c-5.5,4.9-8.2,10.8-8.2,17.7c0,4.3,1.2,9.2,3.7,14.8c2.4,5.6,6.3,10.1,11.5,13.7
		c5.3,3.6,11.6,5.4,19.1,5.4c4.9,0,9.7-0.7,14.4-2.2c4.7-1.5,8.2-3.4,10.5-5.9l0.6,0.2l-4.6,6.5c-7.4,1.5-12.2,2.3-14.4,2.6
		s-5.1,0.4-8.8,0.4c-13.7,0-23.5-2.9-29.4-8.8c-5.9-5.8-8.8-12.8-8.8-21c0-5.5,1.5-10.8,4.5-15.9s7.4-9.1,13.1-12
		c5.7-2.9,12.2-4.4,19.5-4.4c3.7,0,6.8,0.3,9.5,0.9c2.7,0.6,4.9,1.2,6.7,1.9l2.9,1C325.4,272.4,325.4,272.4,325.5,272.4"/>
	<path display="none" clip-path="url(#SVGID_2_)" d="M393.3,299.5h-35.9v23.1c0,2.2,0.1,3.6,0.3,4.2c0.2,0.6,0.6,1.1,1.2,1.5
		s1.7,0.6,3.2,0.6v0.6h-16.9V329c3.1,0.2,4.6-1.2,4.6-4.1v-48.4c0-2.7-0.2-4.5-0.7-5.2c-0.5-0.7-1.8-1.1-3.9-1.2v-0.6h16.9v0.6
		c-1.9,0.1-3.1,0.4-3.8,1c-0.6,0.5-1,1.7-1,3.4v23.5h35.9v-21.5c0-2.5-0.2-4.1-0.7-5c-0.5-0.9-1.7-1.3-3.8-1.3v-0.6h16.7v0.6
		c-1.3,0-2.3,0.1-2.9,0.4s-1.1,0.7-1.3,1.3c-0.2,0.6-0.4,2.1-0.4,4.6v46.2c0,2.4,0.1,3.8,0.4,4.4c0.2,0.6,0.6,1.1,1.2,1.5
		c0.6,0.4,1.6,0.6,3,0.6v0.6h-16.7V329c1.8,0,3-0.3,3.6-1c0.6-0.7,0.9-2.5,0.9-5.5V299.5z"/>
	<path display="none" clip-path="url(#SVGID_2_)" d="M419.5,270.1v-0.7h41v8.3h-0.7c-0.9-3.1-1.6-4.9-2.2-5.4
		c-0.6-0.5-2.1-0.8-4.5-0.8h-21.5v27h20c2,0,3.2-0.2,3.8-0.5c0.5-0.3,0.8-0.8,0.8-1.5h0.7v5.7h-0.7c-0.1-0.8-0.5-1.3-1-1.6
		c-0.5-0.3-1.6-0.4-3-0.4h-20.5v18.6c0,2.8,0.3,4.8,0.8,6.1c0.6,1.2,1.5,2,2.7,2.3s3.1,0.5,5.6,0.5h11.5c3.7,0,6-0.1,7-0.3
		s1.9-0.7,2.6-1.4c0.7-0.7,1.3-2.2,1.6-4.5h0.7v8.3h-44.6V329c1.5-0.1,2.7-0.3,3.4-0.8s1.2-1.6,1.2-3.5v-48.6c0-2.2-0.2-3.8-0.6-4.7
		C423.1,270.5,421.8,270.1,419.5,270.1"/>
	<path display="none" clip-path="url(#SVGID_2_)" d="M476,329.6V329c2,0,3.4-0.4,4-1.1c0.6-0.7,0.9-1.9,0.9-3.6V275
		c0-1.7-0.2-3-0.7-3.8c-0.5-0.8-1.9-1.2-4.3-1.2v-0.6h17.5v0.6c-1.6,0-2.8,0.2-3.4,0.6c-0.7,0.4-1.1,0.8-1.3,1.3
		c-0.2,0.5-0.3,1.7-0.3,3.5v42.3c0,3.6,0.9,6.2,2.8,7.7c1.9,1.5,5.1,2.2,9.7,2.2h8c3.8,0,6.6-0.9,8.4-2.6s2.8-5,3-9.8h0.7v14.5H476z
		"/>
	<path display="none" clip-path="url(#SVGID_2_)" d="M-28.5,363.3l1.6,3l-0.3,0c0,0-0.4-0.3-1.2-1c-0.8-0.6-1.8-1.1-2.8-1.5
		c-1.1-0.3-2.3-0.5-3.6-0.5c-2.2,0-4,0.5-5.3,1.4c-1.3,0.9-2,2.1-2,3.4c0,0.9,0.3,1.7,0.9,2.3c0.6,0.7,1.9,1.3,3.8,1.8
		c3.4,0.8,5.6,1.5,6.9,1.9c1.2,0.4,2.4,1.1,3.6,2.1c1.1,1,1.7,2.3,1.7,3.9c0,0.7-0.1,1.3-0.3,1.9c-0.2,0.6-0.5,1.2-1,1.7
		c-0.5,0.5-1,1.1-1.7,1.5c-0.6,0.5-1.3,0.8-2,1c-0.7,0.2-1.7,0.4-3.1,0.5c-1.4,0.1-2.4,0.2-2.8,0.2h-8.7v-7h0.3
		c0,2.3,0.8,3.9,2.2,4.9c1.4,0.9,3.7,1.4,6.8,1.4c2.8,0,4.9-0.5,6.3-1.5c1.4-1,2.2-2.1,2.2-3.5c0-0.8-0.3-1.5-0.8-2.1
		c-0.5-0.6-1.2-1.1-2.1-1.5c-0.9-0.4-2.6-1-5.1-1.6c-2.5-0.6-4.3-1.2-5.3-1.7c-1-0.5-1.9-1.2-2.5-2.2c-0.7-1-1-2-1-3
		c0-1.9,0.9-3.4,2.6-4.7c1.7-1.3,4-1.9,6.8-1.9c1.1,0,2.3,0.1,3.5,0.3c1.3,0.2,2,0.3,2.1,0.4C-28.7,363.3-28.6,363.3-28.5,363.3"/>
	<path display="none" clip-path="url(#SVGID_2_)" d="M-0.2,376h-9.6l-4.9,9.1c-0.3,0.7-0.5,1.1-0.5,1.2c0,0.4,0.4,0.5,1.1,0.5v0.2
		H-19v-0.2c0.6,0,1.2-0.1,1.6-0.4c0.4-0.2,0.9-0.8,1.5-1.8l11.8-22h0.6l11.6,21.3c0,0.1,0.3,0.6,0.9,1.5c0.6,0.9,1.5,1.4,2.7,1.4
		v0.2H4.2v-0.2c0.7,0,1-0.2,1-0.6c0-0.3-0.2-0.7-0.5-1.3c-0.1,0-0.1-0.1-0.2-0.2c0-0.1-0.1-0.2-0.1-0.2L-0.2,376z M-9.5,375.3h8.8
		l-4.4-8.2L-9.5,375.3z"/>
	<path display="none" clip-path="url(#SVGID_2_)" d="M44.6,363h6.3v0.2c-1,0-1.6,0.2-2,0.5c-0.4,0.3-0.6,0.9-0.6,1.8v21.9l-26-20.5
		v17.8c0,0.6,0.1,1,0.2,1.3c0.1,0.3,0.3,0.5,0.5,0.6c0.2,0.1,0.8,0.2,1.7,0.3v0.2h-6.3v-0.2c1.1,0,1.8-0.1,2.1-0.4
		c0.3-0.3,0.4-1,0.4-2.1V368c0-1.4-0.3-2.6-0.8-3.5s-1.8-1.3-3.7-1.3V363h6.1L47,382.2v-17c0-0.9-0.2-1.5-0.7-1.7
		c-0.4-0.2-1-0.3-1.7-0.3V363z"/>
	<path display="none" clip-path="url(#SVGID_2_)" d="M76.4,363.2V363H97v2.8h-0.3v-0.1c0,0,0-0.1,0-0.1c-0.3-0.8-0.7-1.3-1.2-1.5
		c-0.5-0.2-1.3-0.3-2.4-0.3H82.5v10.6h9.8c0.8,0,1.4,0,1.7-0.1c0.3-0.1,0.5-0.3,0.5-0.7h0.3v2.3h-0.3c0-0.6-0.5-0.8-1.5-0.8H82.5
		v9.6c0,0.9,0.2,1.5,0.6,1.7c0.4,0.3,1,0.4,1.9,0.4v0.2h-8.6v-0.2c1,0,1.6-0.1,1.9-0.4c0.3-0.3,0.4-0.7,0.4-1.2v-19.8
		c0-0.8-0.2-1.4-0.5-1.7C77.9,363.4,77.3,363.2,76.4,363.2"/>
	<path display="none" clip-path="url(#SVGID_2_)" d="M104.7,363.2V363h9.3c2.3,0,4,0,5.1,0.1s2.1,0.3,3.2,0.8c1.1,0.4,1.9,1,2.5,1.8
		c0.6,0.7,0.8,1.6,0.8,2.7c0,1.2-0.5,2.4-1.5,3.5c-1,1.1-2.4,2-4.2,2.8l2.3,2.6c0.5,0.7,1.8,2.1,4,4.3c2.2,2.2,3.8,3.6,5,4
		c1.2,0.5,2.3,0.7,3.4,0.7c1.1,0,2.3-0.3,3.8-0.9l0.1,0.3c-1.8,1.1-4.1,1.6-6.9,1.6c-1.9,0-3.5-0.4-4.9-1.2
		c-1.4-0.8-3.7-3.1-7.1-6.8c0,0,0,0,0-0.1l-3.3-3.7l-2.9,0.1h-2.6v9.2c0,0.7,0.1,1.3,0.4,1.6c0.3,0.3,0.9,0.5,1.9,0.5v0.2h-8.4v-0.2
		c1,0,1.7-0.2,2-0.5c0.3-0.3,0.4-0.9,0.4-1.8v-19.1c0-0.6-0.1-1.1-0.3-1.5C106.5,363.4,105.8,363.2,104.7,363.2 M110.8,363.6v11.3
		h3.4c2.7,0,4.7-0.5,6-1.4c1.3-0.9,2-2.2,2-3.7c0-1.5-0.6-2.9-1.9-4.2s-3.5-2-6.8-2H110.8z"/>
	<path display="none" clip-path="url(#SVGID_2_)" d="M161.9,376h-9.6l-4.9,9.1c-0.3,0.7-0.5,1.1-0.5,1.2c0,0.4,0.4,0.5,1.1,0.5v0.2
		h-4.9v-0.2c0.6,0,1.2-0.1,1.6-0.4c0.4-0.2,0.9-0.8,1.5-1.8l11.8-22h0.6l11.6,21.3c0,0.1,0.3,0.6,0.9,1.5c0.6,0.9,1.5,1.4,2.7,1.4
		v0.2h-7.6v-0.2c0.7,0,1-0.2,1-0.6c0-0.3-0.2-0.7-0.5-1.3c-0.1,0-0.1-0.1-0.2-0.2c0-0.1-0.1-0.2-0.1-0.2L161.9,376z M152.7,375.3
		h8.8l-4.4-8.2L152.7,375.3z"/>
	<path display="none" clip-path="url(#SVGID_2_)" d="M206.8,363h6.3v0.2c-1,0-1.6,0.2-2,0.5c-0.4,0.3-0.6,0.9-0.6,1.8v21.9l-26-20.5
		v17.8c0,0.6,0.1,1,0.2,1.3c0.1,0.3,0.3,0.5,0.5,0.6c0.2,0.1,0.8,0.2,1.7,0.3v0.2h-6.3v-0.2c1.1,0,1.8-0.1,2.1-0.4
		c0.3-0.3,0.4-1,0.4-2.1V368c0-1.4-0.3-2.6-0.8-3.5s-1.8-1.3-3.7-1.3V363h6.1l24.5,19.2v-17c0-0.9-0.2-1.5-0.7-1.7
		c-0.4-0.2-1-0.3-1.7-0.3V363z"/>
	<path display="none" clip-path="url(#SVGID_2_)" d="M247.8,364.2l1.2,2.6h-0.3c-3.2-2.3-6.9-3.5-11.2-3.5c-4.4,0-8,1-10.8,2.9
		c-2.7,2-4.1,4.3-4.1,7.1c0,1.7,0.6,3.7,1.8,5.9c1.2,2.2,3.1,4.1,5.8,5.5c2.6,1.4,5.8,2.2,9.6,2.2c2.5,0,4.9-0.3,7.2-0.9
		c2.4-0.6,4.1-1.4,5.3-2.3l0.3,0.1l-2.3,2.6c-3.7,0.6-6.1,0.9-7.2,1s-2.6,0.2-4.4,0.2c-6.8,0-11.7-1.2-14.7-3.5
		c-2.9-2.3-4.4-5.1-4.4-8.4c0-2.2,0.8-4.3,2.3-6.4c1.5-2,3.7-3.6,6.5-4.8s6.1-1.8,9.8-1.8c1.8,0,3.4,0.1,4.8,0.4
		c1.3,0.2,2.4,0.5,3.3,0.8L247.8,364.2C247.8,364.2,247.8,364.2,247.8,364.2"/>
	<path display="none" clip-path="url(#SVGID_2_)" d="M268.2,363v0.2c-0.4,0-0.9,0-1.4,0.1c-0.5,0.1-0.8,0.3-0.9,0.6
		c-0.1,0.3-0.1,0.8-0.1,1.8v18.5c0,1,0.1,1.6,0.2,1.8c0.1,0.2,0.3,0.4,0.6,0.6c0.3,0.1,0.9,0.2,1.7,0.2v0.2h-8.7v-0.2
		c1.1,0,1.8-0.2,2-0.5c0.3-0.3,0.4-1,0.4-2.1v-18.3c0-1.1-0.1-1.9-0.4-2.2c-0.3-0.4-1-0.5-2-0.5V363H268.2z"/>
	<path display="none" clip-path="url(#SVGID_2_)" d="M293.5,363.3l1.6,3l-0.3,0c0,0-0.4-0.3-1.2-1c-0.8-0.6-1.8-1.1-2.8-1.5
		c-1.1-0.3-2.3-0.5-3.6-0.5c-2.2,0-4,0.5-5.3,1.4c-1.3,0.9-2,2.1-2,3.4c0,0.9,0.3,1.7,0.9,2.3c0.6,0.7,1.9,1.3,3.8,1.8
		c3.4,0.8,5.6,1.5,6.9,1.9c1.2,0.4,2.4,1.1,3.6,2.1s1.7,2.3,1.7,3.9c0,0.7-0.1,1.3-0.3,1.9c-0.2,0.6-0.5,1.2-1,1.7
		c-0.5,0.5-1,1.1-1.7,1.5c-0.6,0.5-1.3,0.8-2,1c-0.7,0.2-1.7,0.4-3.1,0.5c-1.4,0.1-2.4,0.2-2.8,0.2h-8.7v-7h0.3
		c0,2.3,0.8,3.9,2.2,4.9c1.4,0.9,3.7,1.4,6.8,1.4c2.8,0,4.9-0.5,6.3-1.5c1.4-1,2.2-2.1,2.2-3.5c0-0.8-0.3-1.5-0.8-2.1
		s-1.2-1.1-2.1-1.5c-0.9-0.4-2.6-1-5.1-1.6c-2.5-0.6-4.3-1.2-5.3-1.7c-1-0.5-1.9-1.2-2.5-2.2c-0.7-1-1-2-1-3c0-1.9,0.9-3.4,2.6-4.7
		c1.7-1.3,4-1.9,6.8-1.9c1.1,0,2.3,0.1,3.5,0.3c1.3,0.2,2,0.3,2.1,0.4C293.4,363.3,293.4,363.3,293.5,363.3"/>
	<path display="none" clip-path="url(#SVGID_2_)" d="M331.8,364.2l1.2,2.6h-0.3c-3.2-2.3-6.9-3.5-11.2-3.5c-4.4,0-8,1-10.8,2.9
		c-2.7,2-4.1,4.3-4.1,7.1c0,1.7,0.6,3.7,1.8,5.9c1.2,2.2,3.1,4.1,5.8,5.5c2.6,1.4,5.8,2.2,9.6,2.2c2.5,0,4.9-0.3,7.2-0.9
		c2.4-0.6,4.1-1.4,5.3-2.3l0.3,0.1l-2.3,2.6c-3.7,0.6-6.1,0.9-7.2,1s-2.6,0.2-4.4,0.2c-6.8,0-11.7-1.2-14.7-3.5
		c-2.9-2.3-4.4-5.1-4.4-8.4c0-2.2,0.8-4.3,2.3-6.4c1.5-2,3.7-3.6,6.5-4.8s6.1-1.8,9.8-1.8c1.8,0,3.4,0.1,4.8,0.4
		c1.3,0.2,2.4,0.5,3.3,0.8L331.8,364.2C331.7,364.2,331.8,364.2,331.8,364.2"/>
	<path display="none" clip-path="url(#SVGID_2_)" d="M360.3,362.6c4.6,0,8.3,1,11.2,3.1c2.9,2.1,4.4,4.6,4.4,7.7c0,4-1.7,7.3-5.1,10
		c-3.4,2.7-7.8,4.1-13.4,4.1c-4.5,0-8.2-1.1-11.1-3.3c-2.9-2.2-4.3-4.8-4.3-7.8c0-2.1,0.7-4.2,2.1-6.3c1.4-2.2,3.5-3.9,6.3-5.3
		C353.2,363.3,356.5,362.6,360.3,362.6 M360.2,386.2c2.2,0,4.5-0.4,6.6-1.3s3.9-2.1,5.2-3.7c1.3-1.6,1.9-3.2,1.9-4.8
		c0-2.3-0.8-4.5-2.5-6.4c-1.7-1.9-3.9-3.4-6.6-4.5c-2.7-1.1-5.2-1.6-7.5-1.6c-3.2,0-6.2,0.9-8.8,2.7c-2.6,1.8-4,4-4,6.7
		c0,3.4,1.6,6.4,4.8,9C352.6,384.9,356.2,386.2,360.2,386.2"/>
	<path clip-path="url(#SVGID_2_)" d="M184.2,262.7c-6.1-3.7-10.3-9.5-12.6-17.3c-2.1-7.4-2-15.9,0.3-24.4c1.7-6.4,4.7-12.6,8.7-18.4
		c4.3-6.3,9.8-11.9,16.3-16.8c2.2-1.7,4.6-3.3,7.1-4.8c0.1-0.1,0.2-0.3,0.2-0.4c-3.2-10.7-6.4-22.8-9.6-36.7c0-0.1-0.2-0.3-0.4-0.3
		c-3.9-0.7-7.9-1.4-11.9-2.1c-7.4-1.3-15.1-2.7-23-4c0,0,0,0,0,0c-0.1,0-0.2,0.1-0.2,0.2c-3.2,18.1-7.8,34.9-13.4,49.8
		c-5.9,15.3-13,28.8-21.2,40c-4.3,5.8-9.2,11-14.7,15.2c-5.2,4-10.9,7.4-16.9,9.8c-8.8,3.6-18,5.4-27.5,5.4
		c-10.1,0-19.9-2.1-28.4-6.2c-27.8-12.1-38.3-41.2-26.3-72.4c12.3-31.8,47-48.4,102.2-48.1c14.8,0.1,29.4,1.6,44.1,3.8h0
		c0.1,0,0.2-0.1,0.2-0.2c4.3-25.1,10.1-64.4,5.7-88.9c-1.8-10.2-5.4-18.8-10.5-24.9C146.9,14,139.7,10.3,131,10c-0.7,0-1.4,0-2,0
		c-5.7,0-11.1,1-16,2.8c-5.3,2-9.9,4.9-13.7,8.8c-3.3,3.3-5.9,7.1-7.5,11.4c-0.2,0.6-0.4,0.9,0.2,0.1c4.5-6,11.8-9.6,19.7-9.6
		c14.7,0,26.2,12.2,24.7,26c-1.2,11.9-11.6,20.9-24.2,20.9c-12.7,0-23.2-9-24.7-21.2C86.2,38.5,89.9,28,97.6,20.2
		c4-4,8.9-7.2,14.5-9.3c4.4-1.7,10.1-2.8,15.3-3.1c1.1-0.1,2.3-0.1,3.4-0.1c28.5,0,66.1,17.6,79.9,50.3c6.1,14.4,11,34.1,16.3,54.9
		c2.6,10.3,5.3,21,8.3,31.7c0,0.1,0.2,0.2,0.3,0.2c3.8-0.2,7.4-0.6,10.9-1.1c11.2-1.7,20.3-5.2,26.4-10.1c5.9-4.8,9-10.9,9.4-18.7
		c0.1-1.7,2.2-1.4,2.2,0c-0.3,8.7-3.3,14.8-10.1,20.3c-6.5,5.2-15.7,8.8-27.5,10.6c-3.4,0.5-7,0.9-10.8,1.1c-0.1,0-0.1,0-0.1,0
		c0,0,0,0.1,0,0.1c2,7.2,4,13.7,6,19.9c0,0.1,0.2,0.2,0.3,0.2c3.9-0.7,7.9-1.2,11.9-1.6c3.5-0.3,6.9-0.5,10.2-0.5
		c24,0,38.2,8.9,45.8,16.3c5.9,5.7,10.2,12.8,12.7,20.6c2.1,6.7,2.7,13.8,1.8,20.4c-3.4,24.6-29,35.9-55.5,33.7
		c-24.2-2-39.1-13.3-51.2-38.7c-4.6-9.6-8.8-20.8-13-34.1c-0.1-0.2-0.1-0.2-0.4-0.1c-2.2,1.4-4.3,2.8-6.3,4.3
		c-6.3,4.8-11.6,10.3-15.8,16.3c-3.9,5.6-6.7,11.6-8.4,17.8c-2.2,8.2-2.3,16.3-0.3,23.4c2.1,7.3,6.1,12.9,11.7,16.1
		C186.6,261.6,185.7,263.6,184.2,262.7 M113.3,133c-16.2,0-29,2-42.6,11.9c-13.3,9.7-22.9,28.7-25.6,50.9
		c-2.5,20.8,1.5,40.2,10.5,50.5c5.6,6.4,13,8.7,18,8.7c2.9,0,10.8-1.5,18.4-4.6c5.8-2.4,11.3-5.6,16.4-9.5
		c5.3-4.2,10.1-9.2,14.3-14.8c8.1-11.1,15.1-24.4,20.9-39.5c5.7-14.8,10.1-31.4,13.3-49.4c0-0.1-0.1-0.2-0.2-0.2
		C139.8,134.2,126,133,113.3,133 M264.4,167c-3.2,0-6.5,0.2-9.9,0.5c-3.9,0.4-7.8,0.9-11.5,1.5c-0.1,0-0.1,0-0.1,0.1
		c0,0,0,0.1,0,0.1c15.1,44.9,24.4,57.4,33.4,67.1c8.8,9.5,16.6,11.5,21.7,11.5c12.6,0,22.3-12.8,24.5-24.7
		c1.2-6.5,0.6-13.7-1.6-20.7c-2.3-7.5-6.5-14.3-12.2-19.8C298.1,172.4,282.8,167,264.4,167 M152.5,17.5c0.6,0.6,1.2,1.3,1.8,2
		c5.2,6.4,9,15.3,10.9,25.8c3.7,21,0.7,49.4-5,85.6c-0.2,1.3-0.4,2.7-0.7,4c0,0.1,0.1,0.2,0.2,0.2c8,1.3,15.7,2.7,23.1,4
		c3.7,0.7,7.4,1.4,10.9,2c0.2,0,0.3,0.1,0.2-0.2c-3.1-13.8-5.7-27.2-8.3-40.2c-4.7-23.6-8.8-43.9-13.4-56.2
		c-4.8-12.8-11-21.9-19.2-27.6C147.3,13,151,16,152.5,17.5"/>
</g>
</svg>
