<?xml version="1.0" encoding="utf-8"?>
<!-- Generator: Adobe Illustrator 16.0.0, SVG Export Plug-In . SVG Version: 6.00 Build 0)  -->
<!DOCTYPE svg PUBLIC "-//W3C//DTD SVG 1.1//EN" "http://www.w3.org/Graphics/SVG/1.1/DTD/svg11.dtd">
<svg version="1.1" id="Layer_1" xmlns="http://www.w3.org/2000/svg" xmlns:xlink="http://www.w3.org/1999/xlink" x="0px" y="0px"
	 width="800px" height="700px" viewBox="0 0 800 700" enable-background="new 0 0 800 700" xml:space="preserve">
<g>
	<defs>
		<rect id="SVGID_1_" width="800" height="700"/>
	</defs>
	<clipPath id="SVGID_2_">
		<use xlink:href="#SVGID_1_"  overflow="visible"/>
	</clipPath>
	<path clip-path="url(#SVGID_2_)" d="M438.53,631.576c-12.574-8.212-21.32-21.278-25.992-38.837
		c-4.441-16.69-4.238-35.64,0.589-54.796c3.611-14.333,9.651-28.214,17.953-41.259c8.928-14.025,20.262-26.719,33.688-37.724
		c4.619-3.785,9.592-7.438,14.777-10.855c0.266-0.175,0.43-0.609,0.345-0.914c-6.693-24.087-13.171-51.044-19.8-82.411
		c-0.069-0.326-0.429-0.679-0.756-0.74c-7.995-1.498-16.246-3.116-24.673-4.771c-15.325-3.009-31.172-6.119-47.615-8.942
		c-0.007,0-0.013-0.001-0.019-0.001c-0.291,0-0.473,0.159-0.509,0.378c-6.673,40.676-16.024,78.229-27.795,111.618
		c-12.121,34.385-26.851,64.561-43.776,89.69c-8.812,13.083-19.031,24.589-30.376,34.198c-10.702,9.063-22.45,16.486-34.918,22.062
		c-18.104,8.097-37.209,12.202-56.785,12.202c-20.867,0-41.191-4.802-58.775-13.885C76.689,579.439,54.86,514.177,79.788,444.2
		c25.416-71.345,97.143-108.552,211.265-107.927c30.64,0.167,60.811,3.518,91.267,8.574h0.017c0.292,0,0.474-0.159,0.508-0.378
		c8.845-56.306,20.802-144.432,11.764-199.389c-3.746-22.786-11.22-42.082-21.613-55.802
		c-11.668-15.404-26.653-23.604-44.538-24.375c-1.414-0.062-2.821-0.091-4.218-0.091c-11.708,0-22.861,2.145-33.149,6.374
		c-10.906,4.483-20.418,11.099-28.271,19.665c-6.84,7.46-12.129,16.023-15.558,25.509c-0.499,1.379-0.864,2.007,0.389,0.179
		c9.209-13.475,24.4-21.521,40.636-21.521c30.455,0,54.08,27.38,51.109,58.308c-2.57,26.731-24.047,46.888-49.958,46.888
		c-26.161,0-48-20.204-51.068-47.592c-2.659-23.746,5.013-47.398,21.049-64.889c8.314-9.069,18.38-16.071,29.918-20.815
		c9.069-3.726,20.932-6.354,31.735-7.031c2.305-0.143,4.696-0.217,7.109-0.217c58.851,0,136.763,39.529,165.239,112.787
		c12.592,32.392,22.835,76.498,33.684,123.195c5.365,23.109,10.917,47.005,17.082,71.026c0.069,0.276,0.371,0.508,0.658,0.508
		c7.819-0.462,15.38-1.306,22.5-2.51c23.174-3.916,42.034-11.768,54.544-22.706c12.202-10.667,18.555-24.406,19.426-42.004
		c0.186-3.717,4.563-3.216,4.48,0.055c-0.52,19.505-6.762,33.089-20.869,45.42c-13.343,11.666-32.457,19.667-56.813,23.785
		c-7.071,1.195-14.563,2.043-22.256,2.522c-0.105,0.007-0.19,0.045-0.235,0.109c-0.047,0.064-0.057,0.151-0.03,0.254
		c4.229,16.234,8.312,30.819,12.49,44.589c0.069,0.23,0.313,0.404,0.561,0.404c8.112-1.547,16.389-2.759,24.692-3.611
		c7.189-0.738,14.272-1.112,21.053-1.112c49.688,0,78.949,19.894,94.745,36.582c12.111,12.797,21.178,28.794,26.221,46.267
		c4.353,15.078,5.647,30.86,3.745,45.64c-6.927,55.143-59.863,80.545-114.852,75.552c-50.068-4.55-80.755-29.714-105.914-86.86
		c-9.512-21.6-18.157-46.673-26.8-76.534c-0.134-0.464-0.304-0.504-0.75-0.206c-4.565,3.051-8.96,6.326-13.089,9.71
		c-13.046,10.691-24.056,23.017-32.72,36.632c-8.035,12.626-13.882,26.053-17.37,39.908c-4.639,18.4-4.848,36.549-0.607,52.48
		c4.376,16.437,12.71,28.953,24.103,36.196C443.493,629.27,441.634,633.611,438.53,631.576 M291.932,340.886
		c-33.535,0-59.972,4.451-88.103,26.604c-27.59,21.727-47.411,64.407-53.021,114.171c-5.264,46.681,3.079,90.063,21.772,113.217
		c11.67,14.457,26.884,19.606,37.229,19.606c5.967,0,22.391-3.459,37.961-10.427c12.074-5.397,23.451-12.589,33.818-21.366
		c11.021-9.335,20.957-20.523,29.532-33.257c16.71-24.808,31.262-54.634,43.253-88.646c11.682-33.141,20.967-70.437,27.595-110.849
		c0.041-0.253-0.131-0.494-0.385-0.537C346.587,343.592,318.1,340.886,291.932,340.886 M604.247,417.004
		c-6.602,0-13.478,0.362-20.442,1.077c-8.044,0.828-16.059,1.996-23.818,3.472c-0.109,0.021-0.199,0.08-0.249,0.164
		s-0.061,0.191-0.025,0.298c31.312,100.761,50.547,128.688,69.087,150.505c18.153,21.363,34.374,25.849,44.787,25.849
		c25.964,0,46.161-28.792,50.56-55.463c2.416-14.661,1.301-30.705-3.228-46.396c-4.837-16.765-13.53-32.107-25.139-44.373
		C674.025,429.152,642.374,417.004,604.247,417.004 M372.936,81.9c1.269,1.448,2.516,2.98,3.738,4.592
		c10.843,14.314,18.619,34.315,22.488,57.84c7.747,47.109,1.441,110.808-10.412,191.961c-0.437,2.993-0.888,5.971-1.353,8.932
		c-0.041,0.258,0.135,0.502,0.391,0.546c16.448,2.824,32.362,5.948,47.754,8.97c7.721,1.515,15.27,3.08,22.638,4.387
		c0.346,0.062,0.554,0.124,0.44-0.425c-6.341-30.91-11.819-60.999-17.212-90.086c-9.804-52.867-18.271-98.525-27.768-126.12
		c-9.851-28.63-22.824-49.027-39.665-61.792C362.175,71.76,369.861,78.391,372.936,81.9"/>
</g>
</svg>
